<mxfile host="65bd71144e">
    <diagram id="-aWdgs_kbWuAb9phGuLL" name="Page-1">
        <mxGraphModel dx="1610" dy="1288" grid="0" gridSize="9" guides="1" tooltips="1" connect="1" arrows="1" fold="1" page="1" pageScale="1" pageWidth="1169" pageHeight="827" background="#99CCFF" math="0" shadow="0">
            <root>
                <mxCell id="0"/>
                <mxCell id="1" parent="0"/>
                <mxCell id="75" value="" style="rounded=0;whiteSpace=wrap;html=1;labelBackgroundColor=none;fontFamily=Helvetica;fontSize=15;strokeColor=#FF0000;strokeWidth=3;fillColor=none;" parent="1" vertex="1">
                    <mxGeometry x="32" y="320" width="185" height="109" as="geometry"/>
                </mxCell>
                <mxCell id="74" value="" style="rounded=0;whiteSpace=wrap;html=1;labelBackgroundColor=none;fontFamily=Helvetica;fontSize=15;strokeColor=#FF0000;strokeWidth=3;fillColor=none;" parent="1" vertex="1">
                    <mxGeometry x="324" y="444" width="138" height="99" as="geometry"/>
                </mxCell>
                <mxCell id="73" value="" style="rounded=0;whiteSpace=wrap;html=1;labelBackgroundColor=none;fontFamily=Helvetica;fontSize=15;strokeColor=#FF0000;strokeWidth=3;fillColor=none;" parent="1" vertex="1">
                    <mxGeometry x="770" y="335" width="201" height="113" as="geometry"/>
                </mxCell>
                <mxCell id="71" value="" style="rounded=0;whiteSpace=wrap;html=1;labelBackgroundColor=none;fontFamily=Helvetica;fontSize=15;strokeColor=#FF0000;strokeWidth=3;fillColor=none;" parent="1" vertex="1">
                    <mxGeometry x="500" y="526" width="218" height="219" as="geometry"/>
                </mxCell>
                <mxCell id="2" value="&lt;b&gt;&lt;font style=&quot;font-size: 22px&quot;&gt;SCRAPER&lt;/font&gt;&lt;/b&gt;" style="whiteSpace=wrap;html=1;rounded=0;" parent="1" vertex="1">
                    <mxGeometry x="40" y="337" width="162" height="63" as="geometry"/>
                </mxCell>
                <mxCell id="6" value="&lt;b&gt;&lt;font style=&quot;font-size: 14px&quot;&gt;BTC.csv&lt;/font&gt;&lt;/b&gt;" style="shape=cylinder;whiteSpace=wrap;html=1;boundedLbl=1;backgroundOutline=1;rounded=0;" parent="1" vertex="1">
                    <mxGeometry x="237" y="304" width="80.5" height="112" as="geometry"/>
                </mxCell>
                <mxCell id="8" value="&lt;font style=&quot;font-size: 22px;&quot;&gt;TS&lt;/font&gt;" style="whiteSpace=wrap;html=1;fontStyle=1;fontSize=22;rounded=0;" parent="1" vertex="1">
                    <mxGeometry x="333" y="461" width="120" height="60" as="geometry"/>
                </mxCell>
                <mxCell id="62" value="" style="edgeStyle=none;html=1;fontSize=25;fontColor=#000000;endArrow=block;endFill=1;strokeColor=#000000;strokeWidth=4;entryX=0;entryY=1;entryDx=0;entryDy=0;" parent="1" source="13" target="18" edge="1">
                    <mxGeometry relative="1" as="geometry"/>
                </mxCell>
                <mxCell id="13" value="&lt;font style=&quot;font-size: 22px&quot;&gt;reporting.figures&lt;br&gt;&lt;/font&gt;" style="whiteSpace=wrap;html=1;fontStyle=1;fontSize=22;rounded=0;" parent="1" vertex="1">
                    <mxGeometry x="510.5" y="549" width="196" height="63" as="geometry"/>
                </mxCell>
                <mxCell id="18" value="TELEGRAM BOT" style="rounded=0;whiteSpace=wrap;html=1;shadow=1;fontSize=22;gradientColor=none;" parent="1" vertex="1">
                    <mxGeometry x="779" y="357" width="171" height="63" as="geometry"/>
                </mxCell>
                <mxCell id="20" value="reporting.plotting" style="rounded=0;whiteSpace=wrap;html=1;shadow=1;fontSize=22;gradientColor=none;" parent="1" vertex="1">
                    <mxGeometry x="505" y="664" width="207" height="60" as="geometry"/>
                </mxCell>
                <mxCell id="25" value="&lt;font&gt;&lt;font style=&quot;font-size: 25px&quot;&gt;&lt;b&gt;CONFIG&lt;/b&gt;&lt;/font&gt;&lt;/font&gt;&lt;ul style=&quot;font-size: 13px&quot;&gt;&lt;li&gt;&lt;span&gt;config.json&lt;/span&gt;&lt;br&gt;&lt;/li&gt;&lt;li&gt;&lt;span&gt;coinbase_accounts.json&lt;/span&gt;&lt;br&gt;&lt;/li&gt;&lt;li&gt;&lt;span&gt;telegram_accounts.csv&lt;/span&gt;&lt;br&gt;&lt;/li&gt;&lt;/ul&gt;" style="rounded=0;whiteSpace=wrap;html=1;shadow=1;fontSize=22;align=left;" parent="1" vertex="1">
                    <mxGeometry x="53" y="600" width="199" height="128" as="geometry"/>
                </mxCell>
                <mxCell id="27" style="edgeStyle=none;html=1;exitX=0.31;exitY=0.8;exitDx=0;exitDy=0;exitPerimeter=0;entryX=0.5;entryY=0;entryDx=0;entryDy=0;rounded=0;strokeColor=#000000;strokeWidth=4;endArrow=block;endFill=1;" parent="1" source="26" target="2" edge="1">
                    <mxGeometry relative="1" as="geometry"/>
                </mxCell>
                <mxCell id="26" value="&lt;font style=&quot;font-size: 14px&quot; color=&quot;#000000&quot;&gt;&amp;nbsp;COINMARKETCAP.COM&lt;/font&gt;" style="ellipse;shape=cloud;whiteSpace=wrap;html=1;shadow=1;fontSize=22;rounded=0;fillColor=#f0a30a;strokeColor=#000000;fontColor=#000000;strokeWidth=3;" parent="1" vertex="1">
                    <mxGeometry x="36" y="167" width="255.12" height="90" as="geometry"/>
                </mxCell>
                <mxCell id="51" value="" style="group;strokeColor=#000000;strokeWidth=3;rounded=0;" parent="1" vertex="1" connectable="0">
                    <mxGeometry x="786" y="33" width="350" height="134" as="geometry"/>
                </mxCell>
                <mxCell id="45" value="&lt;p style=&quot;line-height: 0.6&quot;&gt;&lt;/p&gt;&lt;h1&gt;&lt;/h1&gt;&lt;h1 style=&quot;font-size: 32px&quot;&gt;&lt;font style=&quot;font-size: 32px&quot; color=&quot;#000000&quot;&gt;surfingcrypto&lt;/font&gt;&lt;/h1&gt;&lt;font style=&quot;font-size: 32px&quot; color=&quot;#000000&quot;&gt;&lt;div&gt;&lt;i&gt;Package Map&lt;/i&gt;&lt;/div&gt;&lt;/font&gt;&lt;p&gt;&lt;/p&gt;" style="text;html=1;resizable=0;autosize=1;align=right;verticalAlign=middle;points=[];rounded=0;" parent="51" vertex="1">
                    <mxGeometry x="10.003561741116464" y="15.99793995859213" width="216" height="90" as="geometry"/>
                </mxCell>
                <mxCell id="50" value="" style="shape=image;imageAspect=0;aspect=fixed;verticalLabelPosition=bottom;verticalAlign=top;fontSize=38;strokeColor=default;image=data:image/png,iVBORw0KGgoAAAANSUhEUgAAAPoAAAD6CAYAAACI7Fo9AAAgAElEQVR4nOx9B3gc1dX2O2V7U+9WccfYgDsGY8s2mE4oCYSakJCEACYfgZ+ShBICIUBCsU1JgQQSQgslMR1sy9hgbGMbF1xlVatLK2l7m5n/uXdntUWr1Uq7WsmwL8/g1e7MndnZe+ace8p7kEYaaaSRRhpppJFGGmmkkUYaaaSRRhpppJFGGmmkkUYaaaSRRhpppJFGGmmkkUYaaaSRRhpppJFGGmmkkUYaaaSRRhpppJFGGmmkkUYaaaSRRhpppJFGGmmkkUYaaaSRRhpppJFGGmmkkUYaaaSRRhpppJFGGmmkkUYaaaSRRhpppHHsg0n/hsc0DADK5a0CQBGAHADZ8kZeqwBkyL81Lx9DYAXgAyAB6AHgBtAJoEveyOtmALUA6uTN+m2/4ccq0oJ+bMAIYDqAGQBOlP89ThbmVII8APYD2ANgt/wv2Szf9h9orCMt6GMTkwEsAHAKgFMBTBvDv5UkC/8mAJ8D2Azg0Bi4rjRCkBb0sYE8AGcDOAPAMgAFx/j3aQWwFsDHAN4H0D4GrimNNEYFUwDcBWALAEHWjN/ETZC/413yd04jjW88yuQJv+sbLNiDbbvle1Cenu5pfJNAvN6XymbsN1lzD3UT5HtymXyP0kjjmMREAI8B6EgL9aBbh3yvJqanehrHCoiX/I209h7WRu7ZWwBOS8/2NMYiSPTiYtnp9G0X1mRtW+R7mo4MpTEmcD6AnWnBHLHtK/kep5HGqGB5WoOndNsq3/M00kgJpslJIN92wRut7X35N0gjjREBKQx5AoA3LWyjvpHfYKX8m6SRRlJAnEHXpsNkY3Ijv8mP0g67wZG+QbExCcBfASweyxcZCY7jkJOTg7y8POTm5sJkMtH3FAoFDAZ/larVaoXX64UgCOjt7UVHR0ffRt47xrABwE/TxTQDIy3o0cECuAXA7wBoxuIFZmZmYtasWTjppJNQUVHRt5WXl0OjSeySnU4n6urqUFtb27d99dVX2LFjB7q7u5P2HZIMF4C75cQbcaxe5GghLej9QQgcXhhLSRtEcE8//XScfPLJdDvhhBOoxh4NdHZ2Yvfu3diyZQs2b96MTz75hD4YxhA2AviBTJiRRhpRcQWA3rGwHl24cKH00EMPSTt37pQEQZDGKsi17dq1S3r00UelyspKiWGYsbCWt8i/ZRpphEEL4O+jOzkZqXzKQumVV16Tenp6xqxgDwar1Sq99dZb0mWXXSZxHDfaAv93+bdNIw3K5rJnlCaiAOUkCVnfk55+cXNcguQTBKnH5pQ6LQ6pw+qQjnZZpLq2Hv/W3iM1dlqk1m6bZLY6JYfLO5oyL9ntdun111+XLrjggtHU9OS3nfxtn+bf9jU6Sa38JwBTis97hFEWrJcqrrsOkgYfPfd9nLFwfMwDJElCc7cdgiTCYFCi1+pBj8UFk0GFLKMaHp+IDrMdHo8AhvH/rDzHQqXgoNMokWfUgGPZFH29/mhpacELL7yAZ555Bg0NDak+PVmOXQ1gTapPPFbwbRZ0Qn7wgOxhTxXWA/hTwcn3rXVKpqbept6sNS9egfOWTIp5eofLg8ZOKzIy1XA5Bbz6v32o+qIend1OZGeoMXViNk6dMw5LTymDJAFtHTYwHEsfDqIowSuIUCt5lOeZoFHyKfy6/UGu6f3338cjjzyCDRs2pPLUxBP/GwAPpfKkYwXfRkFXAHgGwI9TdD4ywV4D8EcA28kb5UtWPVy3r+P239+3HHddf2rMg7ssDjSZbSgvzsDeg+1Ycd8n2LGtASBa2+YBHF5AEAGOxSkXTsOzD52N8iITGpstEBkJDBhwHAO3V6AafnJhJhQ8l6KvHhskXEcE/tVXX03laZ8D8HM5u+5bg2+boBPa5NdTVBxBBPxlORZ/MPBm8ZLVGU2tlo4TJufxu96O/axp7yFCbsFx43Px6ZYGnHnDm4DZgfzSTGgUHGZMzsHJM4uRm61Fc5sV9z2xEVBw2LnmWozLN8BiccMninB6fFAqOLjcPuSYtCjJNsQ8b6px6NAh3H///XjppZdSdWbCbPM92aRP4xuGQpmvLBUOIFJ4cUK021e8eNV1KLpXev6NXTEdWR09Dmn74RbJLnmlDzbXSMxJf5Qw9SFv6ZKn7Jj8oPSrJ9bT/Ww+j2QTPPR1dVu3pJj9J2nWJc9LLVabZHW6JUEUpSazVdpd1ybtre+Q9jV2Sj7f2AzX7dmzR1q+fHmqnHS75TnxrcDoeWdSizI5kWLGCJ91n0zbfLY8kfrB5vJWqoszsGRe6YCDWJ0e1Hf0YEpFNnbuacW5N74FyeXB+GL9KT5JPFGpV+PNTw7jy0MtcJB9myz4uqETE/Iy8PIfzsaOz+qx7rM62peFZRgUZeqh16ggiCJ8gkjN+LGI6dOn48MPP8T69esxderUkb7CGfKcKBuTNyPJ+DYIOgmtfApgwgieg7QqulXuovJBrB1tXjG3OEMNk0Ed9XPiPGto60VZcQaOtlhw+c3/hWBxo7zYeEXN2hXbmqtWVBdnKK85sKMZT/xtK3glBwXHgGcZtFhsKB+XAWgV2L2vHTzPwu3zC3WeQUMddcQZRraxjMrKSuzZswcrV66k+fkjiAny3PjGh9++6YJ+vFzwMLD6TBzvyu2SHpN7mcUGy/g8goiBZK2x0wJThhqSIOGaW99BY40Z40oz7qhbe9PLgX1q1634J5uvP7B+exNq6nug1SjoeMSz7nAJgMMDo05Jtbfg86d9q1U8VDxHnXNkvT7WwfM8VqxYgZqaGpxzzjkjebWl8hw5fszflATwTRZ0wij6yQh2PemU0yzPAxB3YDhLraxubOhGdb2532cdPQ4o1BwyTBpcf9f72LqpDqUTsv7cuO6GRwL7lC5ZPbN48ao/iY29RflGNbIzNPD6RIiQkKlW4z/v7QNUPE5fVIEeixsKzv8TsywLryhCp1GMGa97PCgpKcG7775LPfN6vX6kTlMgz5U0C+0xBvKUbhxBR87Hw3XklC5ZOR/jH5DOuu6VPieUw+OVLG635JF80pH2HumCG16XUHq/lL9oFSFXQFnlqvyiypU3qec+9ikqfieh7H7pxAv/Jn2yrVZqs9ml3bXtkl3wSuu+rJOgv0t64NmNktntko60dPedw+nySrtq2ySXe3Sz5RJBS0uLdPrpp4+kg67xm7pm/yaG14pkU2wkns6ktfCvADwuT4xhoaxy9X/qG3ouueCsyfjlT+YjP0+HHqsbX+1tw8q/b8P+vW1icXnmhxKHBzstnus8HbbLIUFlKjahcnYxzlw8AectnQi9VoHGFgsKc/VwuLyYcOZzuOKMiXj6obPR2GRBea4RGpWCXmhbt52u5bONx3bqN/EvPPHEE7j11ltHytdQLfMPNI/E4KOFb5qgm0bQu07M8+8C2JboQGWVq1mPhHdbWnrP0mZoMb0sA+ZeF6qPdAFaJTJ0Sm9Pq6UWHmFydkUWls8txblLJmDB7HEYX5wBH0TUtfXC7RboWpxM9x/+v3dRUWzAyt+dhaYWC7J16j6hJg4+t9dHhf6bgu3bt+O8885Da2vrSHyjPXKZ8jcmzv5NEnSlHL9eOgJjk86gl8vURUlD6ZKVs7qdwlV2h+cShudLBbsLsHigLDbhglPKcX7lRCxdUIaSAmPYKYngHu2ywub2QKXk8eqa/VDxLH5yxUlo6bAhW6dFjmlM8mUkFV1dXbj00kuxbt26kRh+nRwm9YzeN0weRjfxObl4coSE/E8A7pC7iCQVEsOalZzIWHucPBgW8+aX4rLlU3He6ZMwuSxrwFOxLINsvRoWpxtdZgcWzC7GlIpMtHc6UGTSw6D7drQyy87OxkcffYS77roLjz76aLKHJ3NpFYCfJXvgNIaPO0fAMeOTc6KTjuIlq04qXLzqfeJUw/jfSRff8B/pnfWHhuSmsjvd0o7qVmlvQ4dU39krNXfbJEEQx5r/LGV49tlnR8pBd+c3QS6/CaY7CW/9L8nfxSZ3+XxvoB2KKldpJUk6UWKYMhZQNVeteCGegcuWPnVnfYf9IXTacMZZx+FXP1uAyvnDc/QSB5wgSdCpFTQDLtkgcXhS+UYy6gRBpEsGUj8jyk4wnyTS+CzLyCE8hgGphCXlsMTxx7AslDybsvLYDz74AOeffz58vsHTGYYAQS5nfn+kr38kcawL+hS5W0oy68nN8tpsa7QP8xetPKutx/lD2DyVplx9foZOBVHwfti44RdnDTZw2dKnXq+v7vyuIlePp+9Yiuu+d1ISL3v4IALt8Qpwen3wyK99ggCvIPkFPCSbzv9PwNvN0Akk0f/8kylQC0/+JYJP4vgkQ0/BcbQQhyTraBQ8FCOUtPPll19i8eLFcDgcyRyWMGLOAVCTzEFTiWNZ0IlL+Yske9jb5Mq2fnnqZUtXTqtvsPwJgnTW8dMLcdpJhdhfa8bmAx3I1yvKG6tW1A80aPGSlSqA/bRpf/u82aeU49UnLsSEcZlJvOyhQRAlOF0e2D0+Wtnm9vgFnGhsUM1MJZX6AhiaVcVACpkpofpZDHkvlHqVkR8IgoS+BwV5SJDngJIQYih5qFUK6JQ8dGolODZ5U3Hv3r047bTT0NPTk7Qx5R5wpKY4qU+QVOFYFvTn5cYKycJRAKeHlpQGUHjaqotbqttfP/m0iewd182nbDAqDY95l/wdXx3u+kjac/uZA11D8ZLVSlaSvmjc0zrzzAun492/XJbUST0UWJ1u9Do81OR3eX1UADmG1KuzfZoYIYIsRgg1EXYiwNGEO5rwkyGJcEd+RoSeLAfIg4WcV6ngoVcrYNQoYdCqkjIpSekrEfb29vYkjNaH51PIY5BUHKte9+8lWcjJbFgWrQHAuMpV5zce6nrjhp+dgqfuDVrnD/7lM+zcXI/iqfnPNMUcmlnfuK9t5lkXzsD7f7ss5p5E8AJrYUYWwGQ8FLqtTpjtLthdXipkPGnmwHNUACUquH6NS83tKALe901kiz2wT6gGD30IMPJrYs8zUcajws1xEGXrnSwdCMGG2eqEVqWASasCWRIlkqo7efJkfPbZZ5g9ezYsFsuwx4nAj+SipdeTNWCqcCxq9HEAdpEeBkkarwvAEjlJIgylS57Mb6jtbb3swhl45fEL+z4ia9l53/sH9h7q7Cot0OU1rL85asOAiqVPvVS7r+2KRcsmYcO/rur3OREuUpJKzGcXMZ99Anyin/6J/DLEiaVSsDBpVMgyDD0ubnd70Wq2weryUDOcjBegl6LanIzPc5R5hoYZ5Jz5AEKFPlJzixGfI8Y+0T6LBrIPedARsgwlzyFTp0amQQ21Yvj6iJjxhAvfbrcPe4wIdMtVio3JGjAVONY0OnnEv5hEIbfKjrd+Qg5aOy7cAr0GD9wS3pFp255m7K3uQla29tWBhLx82erra4+Yr6iYUYj3/xquyYmgdVqc6Ha46PqYCB8bWBMzDAJWNJn0Vq8P3VYX7G4fZYaJ17lOtCNJqiHnIuNKstRpFApayaZXKcAxoGtzl0+g7DMBIY/U2JFfUGQAdoDs00hBDgh76JiRDxA29FiOpQ488sBr67XDbHMi06BBnlFLH0hDBalxr6qqwqmnngqPJym5L5lyg48zRiK3YqRwrAn6L0i5cpLGIj/SVbFSWs1W3/w5U3IwsTT8ufLup9WA1Q1drv61/jVoRJOvKqttsz0DvQJr/345LSMNjumkE5hocL1aiYJsHfV+Wa1uyuBKBD4gWEQQeZajmrez144coyYuckdiqte1+7M3idPLoFbSNTBhg1XJ5jCxIrrtLmpRkOo3skIIW6cTC4B4zRXEa87Ra+H8O9HPycOJCCN5NpDjfT7BH36Ta95DEW2tz4aY+WLI7n3CzzJQczwEQUJ7tx0Wm5tm++UMI1d/zpw5eOONN2joLUlYIs/Fx5I14EjjWBJ0wod8fxLHWyHH3wcEq2LN7WYnnC4fNGr/rTrc3I1/vL0PbLauu7Hqpqg0pha3+Do6HXjn5atRURyM/BGSx5ZuG3IyNBhfkomObgf2V3dRATl+cg48KpFSOAdKS4lACHK4K9ukpdTN8aClx07X3nkZOkrzrAp5OFgcbrT3OmB1e6g3XSH7AUgIzKBRQKdTguNZeNwCXC4vbA4vzN1OuLwCza0XBf9jiOVYqFUcvSatzu9EUymJN50Dy3PwEo++2weXy0cfYEKI8EtSMEAnRaz7EbLGJw8AIvDk+sk6nlgoFocHhVn6IbPZkrx4QjX9858nLQeKzMW3j5WQ27Ei6ESNPAtAl6TxHpWZYGMiX698rqGu++I/v7YT/3fNXLrrPY9Xob2uB2UTMn4VLZ42ftmqi2v2dsy96YZTcG5lsICuqdOCbocbMybkoqHVisf+ugUfbKzF7ppOWKw+XHbmRNx/yyKavuqSE2G8lLmVQ2G2EQUZ8WuyshwjtQw06qAlQZhmWsw29NhdVFNraHdVDlkZGrpfT68TdU29OFLXjbrGHtQ39aK53Y5eiwvdNg+cTi9sbh98Pr+XjVOwMKoUUKk4ZBhUMOmVlHq6INeAojw9CgsMKCk0oihfj7w8HV1nkzEsdjccrmBCS+QaHhFOv779yAOJY6m/wd7SjaJM3ZAr8a6//nraMJIwzyYBOnlOnplIJWOqcKw440jTvH8kaayP5XV5XOurrPmPv2oTpEt/efVJaO+w4/m39yM7U/1K18abL496wPQ/HCrM1k+q+fBndC1M0NnrhF3wUqH695t78Me/bkX13jZAr3DpM3UfioKodxzsWPbIkxfghh/MxuE6Mw05mXQqaq6rEiSKIMLd1GWlWW4kcYUIZl6mFl1WF77c3YIvdjThyz2t1LpoaLMBDndg3UC6QECh5KnmV5K1vuxDILF4woLjFkV4vT7AK/pppwW/I5HRqVGQpSYUWJhakYVpE3Nw3ORcTJmQjcI8PVXXXT1O2J3hrMuDOfvIa6/MfUcclOOyjXH7LUD9HgLOPPNMrF27NqF7GoIfymv2MY1jQdCz5dh2dhLGapAznIZUhZa14IkXzc2Wy6DgbEVFhqeaP735nmj7FS95qrJpX+v651dfgmu/eyJ9j8Ss7aIXDocXdz68Hq/8exdgUnmLC/QPshL7t8aqG5tKl6yc13Coe8stvzgFD95WCWuvB5l6NRR84qmjbb0OtJit1EzPNGlQmKVDTUsv3lt7GO+sq8a6nc2QzA5AzUNr1ECv4aGQQ3qRTrig4DF9Siz4N/w5cgzjX78LElweAVa72889L0lQZOswc3w25p6Qj5NnlmDuzCKUFZngcntBlkhknR8a4otEZDyeODJJsk1FvmlIjjrSEZZ0pCXdY5KALjlDsysZg40UjgVBfzpJxSVuObNp+3AOLqpcVQIw1uaqmwasUWZPePT18gLDdw+8ex2NAZO1N9Hk9S29+MH/rcGOz+uQPyn3E5WCu75h/Y1HAsflnfbEi+3N9qs//uflOH1BxXC/Xz+0EV74Lgu0Sh5lJRnotrjw0pt78ZfXd6N6TysV7qxcPV1rMyTsNkA4LPh+cLqEeugRIviIcjy1AiQJTo9InZGkFBcaHtOn5uL0BWU4c9EEzJ9ZBJWaR0u7DR5i2kfkDwyUnEN8B+SBOCE/I8wXMRhI8wjipEsSeQVZBt6QjIFGCmNd0El66045rJYobh1JL2n5kieNdQe6Ou65fanyt//nD8eR7LN2mxPX/nIN1r1/EKXT8v7dsP6mK0OPK122elLDwa5D5549Be/8ZeCEGuId9xATmQFMWvWgGowsF+rae5CXpUNRth7vbKjG71Z9hh2b64FMDYpydf5cdUkKEdRwTR2AX8gCmjZ6nN0PJiwPnuzLhr32Tzciwx4SPut2At0OMDk6nLegDJecM4Wy55ClRXObDW63X+AjNXyk4444K4nTjgj7UMg1CFPNLbfcEvf+MUCWgbMGovgeCxjrzrg/JUnIP5Lpn0YMbh8ugEmjPFt2wBH5Ic6uV97ei3UfHkLRlNyuSCEncLl8d5CZe++KRVEvjYTKOq0uuLxeaiGQcduVTjqpo7G5ut1u7N63H5u27oHF3Iz21ias/+wg9u+qASQvGCULpltEay0hfefBKHRgFVoolCYodLlgtTnQavMAXhMRE5cihE0WWoRaAlKI1vULtii/T0N3cv479aYzDIqzNGCztTRHYM0HB7Hmw0NYdGoZfnzpibjgjEk0rEg60AghWXuI4rgj94GE+Kpbe2jLqVia3eoR8XmbE+0uH5Sn/wD5s95E246NiU4LTp6rZyQ60EhhLAv68iTduC7ZYTKintEWq+e8GZNyMet4P+msAAntPXZ8tLGO8qxzLPN25DFlS5/U1+/ruvInP5qHuTP6c00S6ucui5N6nIkTjeX8ZjBputhrdyM3Qwur1UodSyTdc8uWLdi1a1fMlE/J2f9GCBGNyLqJiCpyoDCUQ5U5EdqcqeDV/lyCYBJN0HQPXbsHHw59ATT/eyFVb6L8IKCvJdBQWVFZJs1///Tzeny6qQ7nnDEZ//fjeaicV0rZcUlUQOTYcE+8/C8RdmK+E81+pK0Hk2L0l3uvwYb/t68XJ2k4alksu3s1XrlsAURPwrUqpE7irMF4/UcLY1XQGblnWTJA4uVJ8boMhILKJxWtdb3LZp4xqU/LkhBWfXMPapt6oTRpSO32l5GHd1l9dyDHoI6mzYmQd/Q6KFc7uR0ZehWMRhXVcjt3H8KLa17Hxqq1lGHF6XQm+RuJkLzt8JjJthXWIySnoBSq/BOgyz0BCn1RnyaPlhcv9mnz0EdKUPOzYWa9JC8hAJ5hUVqaSTP13vvoIN77vBa/vGY2bv3JydTHUN9soXuHLt8DWXqSrNlJF5qa9l4q7NFq9IllMFXFolzL+wts1AVYetdj+OS31yfjxv0ewIdjMdw2VgWdkEnMS8I478qNDkcULNgTIYo5Uypy+k5Dplh3rxtWh5fyuTEMG5ZYUbT0KVXzvtZbbr+lEsUF4U0PqblucUDJ85RUIi9Hh33VnbjrN6ux/pO30XBwy0h/pX4Q3Q1wNpDtHTDKYuhKFsIwbmGEJ1zqE+TQuS4G6tMjHH7osxCkvvf8jWEZlFZko9fmxmOPb8L6Lxrxp18vw2mzSmgXG6fbvyan55JCQnESaAKP0+VFY4cFZXn9aQqOz1JCxTH+KKCc6Dfzgstw+JM3Uf/ZR4nepplywdVriQ6UbIzFBg5MkjLgrCNFBRUJRsIcQq1SVhRO4uimxSoCjT+TcHbYZw7PFcg16G64cnbYMcQL3GZxUEqHvCwNTEYVrrj2PsydPhMvPHXXqAh5JCRPE2w1r6J14x3oOvI+fB5riICHO+TYPjKKgKnP9Al20Nxn+qyDgBVA4vQkS2/clFzs/KoJS3/4Kp59dSeK8o0wGVSQSLcbWWGHVcbJSwGzzYWO3v6WzlSTEtP0Cpg9/kcMr+DQ0NQN45krACYp4vCbsShXY1HQLwKQDOqVe1JVYeSTpONIgkl2RPYaySKzk4aGHAMOjDX0s65Wyw8uWzYJZcXhWoesvUkSSaaBxwt/fx65pmK8/cKDkDwjQmucECTRAdfR99C2+dfoPPgW3K5g5r8kC3eg/tyf7RY054MONSnkIRBEoHSWaOmy8iwwHIMVt72Dux5eRwU9O1NLk2YiC28C/xLN3tJthdMdnpBDrIWFBRq0eQSaEdjb48CbXxzBHgsH5RlJ4YEkkaKLk36zE8RYFPT/l4QxDgB4KgnjxAVRlCqgVkCrDQ/t9FqcEF0eOrl8ktQn6MWLV2bDIy48e/H4fsN32ZxY+fB9mDa+HLf/4mb43NHKZsYaJLhb16Fzyz1o2/kX+Dw2OWznN42jectDnXi0yEW2BtgQj34AHkFCUaYGGSUZeOLJz/CTO9+lufmkIEiQhT2sAo5oatafwdfYGfZ8pags0tI1usMnweMToWYZ5OtVyFlwMRh9fjLu7a1j7Rcaa4K+AMDJSRjnlghH8kjDgD6tFURtYy/gFIigt0mM1Ed14nILpygKjdwpM0vC9v/w40+w9JS5ePFvf4bDZkvh5ScPPstuquF7GzdRgY1kpAlF4H1JYvo0uxii9YPC669wMah55E3MxqsvfYVrb3uHLglysrQQRf9Iob43sgYn5BYOknXXE+5RNyhZnF2kRY3FjdwsHcYZ1XB4RLAcB8NFv0zGvSBzeOGI3+whYKw54+5IwhjvpTrEwROV7fLBanOHvb/lq2Yy28iEPdBUtaKvGLrL5p41f2p+WPnrL37xC9omOClg1GA1xeANJeC1eeBVeoDXQalQQ2CVgOirFj22ao+zo1Gwt3skj13nc3XlSZ6ecRAd4yC5MxK7DJGu4R2t25E14xqoaGgu6GmPDMWJfR55JiQuHzD9g446Uk/DcwyKJudizVt7cYOGw3OPnE9LWXus/mKd0EQaUc5lIGXBGTolrR8IYHmpDu802SEpFCgvzMS+Div0Gg7GSfNgK58LsS7hhjy3AdiU6CDJwlgS9IkyrW4ikOTeaCkFSwgD3QLqWoPx6827m7B2cx2yc/UkHBROFez0jic53kQjEdbSK6+8knKcDRc5efk497xz4WLH4dX3ulE8aVI0ZhiHxDB/BphXmqtujMpwG4JSMIpTweq/A9G+BJInbziXJjqq0bnlXhgmXwV94fy+98n3Jgw3gay50PTa0Nz58JRcpi8eL7EMCifl4LWXdyMvW4fHfnUGzaIjNf5cQK3LpbA8w8AlCmjtcaA0N+gsNSlZnFesxT8anKioyEF5fQd6nB4Y1QrknP0ztD+TsKCfL8/p6kQHSgbGkul+fRKu53WZZiqlkBh8TXK316wP/qZ3P74BRPjVShpXfz7segSxJDdbg+eeew5z584dlpATYbniiivw79f/g7VbduPxZ56GOnc2oMylnwc82ax/sr8EMFObq276ZRxCDlr8I3lfhtD9fUgesmhdwvA5b4LhhhGwl2A99E90HXorJMElNPQWTKwJDbMhLKza1lgAACAASURBVH02mHkH2bNOUoCzyjOx+qnNeOpf21GWb/Jr8ShXoOJ5WsFH6uNDcWapHrmsBFajwswphejxUNJ6KAsngJt62tC/ajjYVEV94sFYaZStlCmiEmn1SX7jS+W+5SmFofzcJoNedePOWjO0HIs16w7hn2/tQZHfNP99U9WKNWHXY6z8WSa7b9zjjwzd+JgyZQp+9atf4cUXX8Q111wDU16Jn1TSJ+L5/+xGQ5cdRq2/JZOcinL90Q03/dpa/14iDIl1EB2vAdKjrGa8GxJzPCTnkJqVC7ZauJy90OTOkN1uQTNb6tPngUV2UKMHAnZiyH7yihxqBQsrz+KD9UewaN44zJiaR0tfyUoq8HCgpJXE7CdNKCRQ0skASDzd7hWxodWBqUUZcHTbcdBsR4aKhzp/Amxb+yUzDhWT5FZho045NVYEnXQpvSbBMV6TiQBSDmvdex0ZE84TNQp2ydvv7MNnO46iuCQTCkb6+GjViki2WgbWQw8f2f/x0B5qXJlw3jW/ZT//5F9YsGABdDodLZppNlth0qvR0WnHi//ZQycuyabz0fxyXNmyYUWy6vhBfVy+7o2QnH/UlF90QPIxCyRPpzGO4yhEeyNsRzdDnT0djNLPIcKGBthIiSvhkKf/D74feB3Q9v73/VzSmVoles12bN/fjovPmQqdRkE1d8CEDzwYSEYhccyRh6AipCAoT81hXbMDOpUC2SYNao+a4RYkKEwZcLXWQ+ysS+R+kd94H+GoTGSQZGCsmO7XJWGMh5MwxrDRuO7G3zEszs8vzXi9qDhjo8TglvqqFcsjxtPQDjBi81Bq6+sYPucGFP+IK62YHPYBKUMlDici2O3dTnTZPX0kFSpG+n1r1Yp/j9T3dda99apg219iqLj0t6xqXPw9kIQedHz5ALyWoyFFL/6JyEiBYphQ30JoaSxC1vR+px2JpReXZuLrbY149JnPkWfS0qw5eipi6UgSDcMV5OhommynNXz1UaDjcXK2GrXdDuTlGrFwWjF6XD5wRPsv7leDNBwkY24njLEg6GVJ6IJaJZezjipaq25+p+3Tmy9t/nTFouaqm56IuBalTEQ5J95rZFWlJIV3ctGp970BlvF6fcG1LSlb7bE5KS0yxzFwEJomF8nCo4UfRxqrbv51Ku6Ftfa1+woW3FmiLjl7J5h4DUQJnTsfhtvS2BdPD6+YHqh6OrzJRF8cXpKgLc3Aqhd3YO0X9RhXaKTElcSPQQgxN2xtwGfbjmL8uAyIjERr2EMxP18NlyjBYXdj8qR8zCg0ocXugbZ4Itii6cO9NQEslef4qGIsCPr3knAdSe+Zm2Qwcvuo4+MZllMagcKfofDk22pJPoDESF1Q860NzcFlNuGg4/xCTbnU3C4vvPZu9Bx6Bc2b7iRFPP8E8JJMwxUNxDz4q1wL8C95G1bUo7nqxjbX0fdnZc++425WEz9xBhF2nyNA9iP1aWlEsNYEE2mkvlCc2Oek88fqc8ja2+nFH/+6hZJRalQ8XdJ0djtw9R3v4fyrX8a9j31Kw3OEKz8U07OUKNXwsLp91Ml30rQi+gC1CSJMS68ezi0JBSP7jkYVY0HQY7cvGRw1Y7U0MATvyQUPg2L6jBn49cNvACqSTMPQ5KHmqhVCRoZmz4ZdLahu7KYlsE5CHMmzfdTIhA8OrVvg7fockmBbKFNZXyFz7UVrmH6HbFZ+H8CV8vZ8PNc4ELq+/P0DxfNvXcQZZ8SdrNS+I2j4BEOCwYSZYM83pp9GDwXJjS8szcQnaw/jvx8dRHG+AQoli9Y2G+WsZzJVePzhKtx090dwCuEa3ajkMM2khNknwm53o6ggA7PLcmB2eJA5aS6gGbhXfZz41gv6hKGYsgPgbwNQjI0VXC/XKQ+Kyy6/AlVbt6BiQh6pzIBXlGYUVa6mrnujhn/BZXbg/qc+pcNkGzX+1k2UlAHIInn2XFST1zKA0zXaPetO9J41Vt20MX/WT6eoS86Oq8OhJFjQtiecWzG0xDU82zAy/BZeCsvylHwe/357H13akGaOhFM/U6+ESa1C3vH5ePulnfjVH9f3u47JJgV1whEQSuvxZdnIUCngEgHVgoRT1+fIc33UMNqCnuiTzpdEdtiRwA/joZUmePnll/GHJ56mFM85WToYDEq4faJKkiTqgWtYv+K13GLDgX++8TUe/utmlOYYUVpooimgOlaBQzVd/uLs/vAOUB8drW1JUtKGm6tW1OZOOHtCxkm31oIZnNrJZ/4SrXv/GdLNpX/hixjxFfo/pfxpsnnFRnz8aS3WbqyFSaWCXq9AtlENq0egZrlhYg6eXPUZtuxpDju6zKiEjmdptIKUueZl6zE534ROtxdZc85O4G70YVS1+mgLeqKZcO+ONKlEAjgOwN/jOXzdunU4eenZtLmCVq2gwm7z+GhhBsD25cmqleyZ+kxt768fqcK1v16Dbbua0dJhx2MvbsE9qz4Hq+bHTIugxg03mw2m8pPyT76vlWEHp+MXurbS/PgAQotbQskpxagsNkxfcQxlzhUEvLbmALwQkZerR06mBoLLR62fTJ2ChvHuXxlOH5WjYpGtYMmh1FIifPoF+UYae+f0meAmJFyCcUGiAySC0RT0rCSQS7yUpGsZCcTlN1hy2YOoXFIJXulvqGBUqHCwuhNSN/GoE2eb2GdON65b0ZClV83JLdBv+ccru3HOz97AeT96Hbf+fh3t6oSunaOSRzAQGjessKhV+jm5C+51xqPZSX68xxma79SfqILtZ5wEzXeacCdKyCo04s31h7F+WwPKsozIMmkAwR8BJGv5/PHZeO/9A9j4ZbCKmbaPZhia2UK5430CMoxqZJEHryhBO2vAztjxYq4850cFoynoyxNM2LHLGn0s4mmaLz4I1BWXVa/fIuDn938AlmFxXHE2Nn/dhGdf3QU2S0vCQy6WCW8A2bD+huqOTb84eVyp8XKtknuu3eZek5enf8CgV0wRPU21Y+1e1Ff9oolXaJbnnBQf26p5+5Mhf4WH3MQQDR4sjglnpZVohxqe9sZ7+b/+W5efrfEv8mSQjDjyVPjr68GILIm3+0ImJCl/1aqVyFDzlFfAMHVBosQUnNzVZVQwmkUtcTmoYoCklSbM6DcCmBNnjvNLBeULf271CDv+/OKOiTv2tOGEyblYu6UBDe02lOTqIArSi40bVkT9jo1VN78CgGxwjcGbEIrmqhWbiipX36YtueSPjqNvxNxXEnrQe+QDmCacFdGhRYoQbiYiHCcfL/mZcjOKjPjHfw/glutOxviyTGrOB8JxRKsri0x4d2MdzD0uZGWoaUpuwPEnMf5xSHNJwigr2NxglUrwUxfBt78qkVtxZiqozaJhNDV6ooI+VpvRx3NdpPDmqrr1K6xqJTezuCTj/W0HO/Dcyztphpss5PUSwySjbHdMoLnqpj9lTlqyiTcOvlpzHH0XXkdnSJgt3MkYGmvvzz/nn9RGjZK+/vlvPsC6zfVQ5wZS8/0Phxy9EuZ6M97f5C9EMqlYGBQMNdODnn4ppNUrA80JSxK9lYnO+WFjtASdlO8lQuVBvMNJa56VRBBu7/JBhmsNJddoWr/C1rThpnOKs9RXFJZmvJ1pUO4WROlJiZFOaK66Ma4QVQgGcsZF87BHC6+NKHspL3m/m3fS1RKnmjzovuZ9/w5hjA1HMAU2kqAi+Jpo7dJ8HT7f3UrbTuUZVSFc9AGyOQbrPvfnshNzvkjDo1eQ/Iw3LAO3R6B58wrWn5FvmDgbCSJfnvspx2iZ7omybxD37ICtkUYR8SxEl0eztps23PxyEsy6aLQ04gAPgGglp/HnrA8D9VW3tBVVrv5N3gk/e7DlyztpQ4mBINoPQ3CawfQlqzBhJBThwh/ZCw70b+J/I00iRPh7uCOE0IKy2mRp8MWeFppQQxpilhl4uNr94xCz3e5w07x3ViE/IFQ6sMUzIDbtGfqXD2LhaNSoj5agn5rg8Qnz8o4AfhRHiyuSqjuUWXKJnHDDxZEU5BkgKYOwxayThTggJ94B0nEnyN1mGXl/EroktLNvkiS2IVz3gGiuuun34xav/j99xbW5tpq/xNy3ff9ryJ91fVgteiCURmvaRcoNHdUQCazlI3vIoe9vCblGNfbVmrH3UAfmzChEmUEBld9PR5tmdPc40OX1okSp6juHaurJcCYm6KeORu7HaAn6KQkePxZTXgerniMsj7cPccz7SFZsAtdEQOJa8S4u9XLHkVD8UG5nRSrhHkxK439GuF+fd9wqR9tkiPaBSTdE69d0ra7S5kSE2fxCTtbSktMLRqPoa+SIAAOtFN5CKrJtFCXk4Dig1409h/2Cnq/hkKngIJBuOE4PGlt7w0paCQyT58O59q+JfPtE5/6wMBprdJOcTDJc9A5RK6YCJF8/Z5DzDFRcEgtDau88glDLFstB2cJICALYP7NqpSW7InqL+VB0V/s5O8KE3OEBNy4bOPtEsGU51Cse6IrKyp736JBr1JkQ/nlRxMEaf+w+X8sjV82CUfJoa7egptOGQlW4LuQLKkB7Yw0fx1Ey0RRjNAR9RoJdXL8YC4wdEbhvkM9JTOadlF9V8sHLKb1PJjJyc9UKLwfxBV5ngrI4dns9oXsHpY9GX0kqwJAebCXZQLYBOHkiuJIsSDYn1eThHnkmygRn5BbR8npfzaO+xU8JTfrC56l5uAS/My+IIAcOyXfgxp2YyNcnAyU0wHAwWoKeCD4bhWuOBZIIPXWQfX46zLFzk3eZScXNclnrsCEAz4EkpGQPbsmaj7zXZ24zpEpPrYCk5MH22MEJEpjZFYBBS814KYTzWQhTJ8FuMAHQ13JP9gBIKixJP9ZrFDCoFPBF8YyoKxLuL5KoDAwZx6Kgf56k60gWBvO0NwA4PMxz3Sk70tpG56vFxJVyWuew0Fy1guQSVHMqI7js2ILjbd8URigJ2lzRL8VepxswaMBPKyGu9bD9uJDX/t2lMO1M31fy6OpxkPbV9O8sNUe7upJEGZWCgUvqbzyqyxImo0gLehzYkZKrjA+ZcbR2jmSaGRDjKlddFfEZSfFdJjOUXJSqFlNDwKuJHS6uYdVKmIoiGbciIcHW+TV9L1ifLvk7qZL8dIcLUnkO+KIMiA5Pn1CLfXFz/7qdjfC+0795Fr0OL8wWf7QxU8XJbZg5SsvF0J3DV5rqooRD4SckOsBQMRqCPi2BYxuSUTOdRHx3kKEEmcVlUBRVrvyFT2L+WVb55Pwo+5LOEG/LjpyEu/YnERXyA2hYkBhmk0QZX3LBaApiDuFo/qLvNRFaTghqZoVPhES48iYW+ie0LMnBVNlwdtnQWLyKVAO5fbA5/DF9wvdOigYljqWCLkTUw9NRNAZA2b9T6xCQiAwMC6kOr2UmWMEz1rztFw7y+VsDJLGEoXjJqiyvT/oT6b7Ka7iHYnDokUKeStmUH8zLHwBRVSvlOHu0B7sgz4Pxctnw4DWl4fil/D2HDBbMV7QBo5KDpnQpHAcH5rL09ezxl6gSdS2I8Pl89LVENTsDxuEGCjPA5JsgtfWC0aqixNdDC2BCWj+FKGwNz0LN+UN0pH5d6DP/pbDEHLZociLdXAJykLLGeqkW9ERZNg4k6TqSAY0sdLHwXDzn4Rn21xavl1DAweWTlhQtXb20ed1N6wbYnSiiu+K1FOT20XfGuS9x/t0NYEWc+0PO9Mofnh9BqmOBZknJF+l0xw1SoSTCaT4EbeYkSB4fGLcPAhdkhCUa3q3joCjJhq/FHJIeG2zxJPax0gSKZPwSzoX0bdPyDLTyHxzPwd3njAvv+a7ML4MrsbZN41Mp6Kk23RNlwxxLZZhnDdJwoi2exJ7CJas09S2911eeUIR/PnQOel0+0l5oMO62f8vmfDzg5IdSPOiQPepDLb4YzE8RFc1VK4gY1TAMCx5q8PmxafXsbTv93VgEEazbr9EDIFqdJy2SC4xgTTpIPjEiG04Ky4kPMNlwlH3TTzYBOeedZLySpBku0AMqDP6lAJ9dPJyvHIqUMsOmWtDHJXh8Qmz6ScZg+fpx1cozEnsGelzan156Is5fPAkLTyhAV6OlbNzSp2Jl0RHl1xzj80Tx4RCJIqcM93wifSAS7xcHVXbs8LKvxx+8IMLJOj20Q03oGpzxCPAaNGBJjzWXN8yJJiKcpioALz01S1lfIa/ZCWU2GZpsvgG89VxmbJ9CHEhUFoaEVAt6YYLHjyVBH6zeciDTOwytvY5lE2cUYfki/6rm/103n5I82u2eh0uXrIzV3HCky9AfG8K+mXHsExUMw/jNVyUPjSa2kpM8rYDP5U+McbjBiFJErFyiLDFMjoF65yOFGiFFLQEQ9lzSjlmv85e1klZ5yhBNzvdzxvk3PjPRqYyEnxRDQaoFfSgdSqIh8Tzr5ICPIwc9nmaGELud05bMKYFS4dcoZy0Yjx9fPRPm+h74GC4WVdZIt9PaP4Q1ZCKkkh5JLvvmGAOgiO3NdlmbqfdMcHnAeYUQ8132iJP1e4YOrE5Fk2vYPk54JkTIg1lzgk+ATsXDKAu6FNLPPXiDmX6bKnGNHq8zNSk4lgTdMUBp5WhgklwVNhBa406ScfsKp44P/83/cOsSTJldhOam3tPHLX0q4Q4Cw4Q4QB17NCRUMky827nZWipYXFbsGLXb1gyW5yDZPcRzSavMwtbRPgHQKsEY1JC8gqzVAySTUoj5Lr/vE5GdoYEqIqedePgFMPBFPEj6ur4qlEEP3vCQUv64Y0nQx0qBB2RBj4X420NJklGjCZ9kOUYtHvjlIqpeHG7f34oqV6a8CAJAyRDIQYa9pPIJkoZX8zDmGSGyLHhdbCeXy9nhj4e5fJCcboh91WV+TUvW7T4itAZNiEOuP0lFn8C7BBTkBBvDEtkl5r9Iuq/6BATti1CTX9bwicXSv9EaPZHc7ZS3Q46BwShSvh7CWF6vp39C9YVLp+CsygnoarEqJYZ2U0k1fjWE4qNhlw27Pd68TKMaukwt7KIEjXKQZ4vbSuhfwHh9kGwuWuAS5iSjbVdZcHp133tsaIYcEzHpXV6U5AVTB8hPQVrcSaJI1+8uNrKvawj0w3ZNINV1DKkW9KEmY4QiZTHHOFAyyC7xhwGVXHt9c3/GKB4MvrN8MtVejJAwI89QceoQmvhvl5cqw4Ld7c0vzNSgJM8Aq08Ew8Ruuy75/D5I6nF3uOnaXoiQP68ogtWowBATX1bCQfLICAYPlkFJQbDzM+nW4pWdBh6fAL7PPA89iWwd6GKt3gbF0NpmJ4hUC3rcvbSjwDpiVzV0DGazxZ08wmcZ9r69vhrRSqgXzCrG9Gl56LB6BuOhiwVhiL6Ni4aYZjvsktXixU+pfG5xPFmfazMI97oExSDNHiTR4++OTjQtIZ0QRQQZ4/2aVylK8GkUYBQsTZcV+5hmwnu3URJIFYeKcUGBdQsiPJK/Ss7lE6BmmJDjIsJ53OBc9TGQkN0/VKQ6M06ZwLFjidV4sEd53M6p/Ezlv2r2tV13+yOf4NE7guQuRCsVFRhQUWjC3kMJsTgRG/YcOX022u8dUHAktnW5zGkXL5oSaaIhMSiHy5udl2uAO2Bqswo/f7o0AHOWGKwmIxlyJHmGC/Gm0yEEEZKCh6jg6T4cG6hTD/ZrI387PQLUGVpMLAua4CTl3Uni5z4Bgk+MaGcXodU1iRioqZW9VAt6vBla0RCvBzgVGOx7xC3oTetXbMha+OSHf3xm85lkbt9940KYjGrKPLp1ZxO27GuD1qjZnACBvXEEG12ck1iDS3E6NZ2LTThMdCxZb3NqgFERjqjohwTKRolG9wlUqL0sIxe5hOSjk77xPAfR6QFoxxumz9seeN3j8mLGuAxMKA0KusXr1+iSR4DNK0DPMRHr81CHXEJI6CkxVIxmA4ehYqyE1hCHZTKka9UpufOZkox3//TUZ2e8u6kWC04sBMMxWPtFI3rs7tbiDOUjY64Fix/XyXn39uEczAjSDK1BjfLiDGw90ksFkia8MNzAvNOyRid0UMSrzhMiCpqDEAx/kUQakXRW5f2me+CT8NZORKqdmDZxIq09D6DL7aMJOW63Fw4i6IrQnzrcIceqNGOO6mggHEuCPpYw2ON8SPzojetuIgkny0uXrL7oYHP34gMH2soBxq7M0u4vzFA+U7vu5rHkiAwFKX75jkyNNFQOenS5fLMnFhroGrllWwvtNec32WO7jsSQH8AXXDHL70j+0lKWpTF2Sj0V0dqpT2CdAqZPCnd+dzh89BjS8NJfohrpbZciQm3HBo4lQU/E7E82BltGqIZzvob1N70VWvLpqQHqR/NbxodSOd131lAPdNmcs2bMK0Vejh41FhcUSh6MywMpBt+7xAY7rPLwJ6SHi1ykiR18HUoBTb32GgXmHh+e4dbiFKFkJNgdnhBvfjShZiC6EzIyBy1fTiZSLejOBAQ2EUdesjFY5Vgi0YVkQ5DLe31xRFlEOewzfogptqTs7Fa5U01cGLd49XGN1R1Fs6blQaXmUGP3IouktopuQBz4OcqA86euyn/RFNjIkFnEF2L60mCDLZ66HB7kl5gw94Sivn3tPhEtLgEKQYTN5oYmjOo5mlZPCCm1+lMt6J4EBF0dxz6pwmDOtpSGTgZB9zC44Ul62sUA7o8jwhDAIwCejXe9LjCE35zBvOmF1MsNt9877hfyGDLAKvxCTXqkEQ52sj4nr8O0bqQQBjU65Kedp9uOebOnICsjOB0brD60eQGl24t2hxt6PlpoLQTOYbkmAkhpFCnVcXRLAseORhroQBjseyRavDPaIGGzVTK7bbztg9ihsN263MJCZOsw76RitJrdJIBNq8Z8vtjmMMsq5Bi4RCveWI6DDxK8IgMxioXN9pvkDCQSQLd7cMrM8HTbml4PXAwDm80Fq9MLFRdp1IR63CVIQiK1PHHzCSQFqRb0RB6Bo9ZEPgoGqwUfPypXFR1MAlYUSfw5bwj7/zjeHc1W56I5k7KhNmpwuNnS17XU547td2R4lV9YRf8aW+JZkBRitxCoZGP8ueqC6N9C1vT+ijXSk00CTBosmhvewn5/jxc6jkFntx0OIaD/B3a6ifYh+x9DkdKW36kW9ETy1VNaBDAIDg7yecrJ/0YQB4cQhz8+nodcUeWqSehxjZ8/w1/TfajN2kfc5rG1xDyWUeqpRqZssHo1rF5/9tq5CyZgXI6BMvQQJxoniGBkUvbI9XtbrwvTp+Rh3onB9bnZLeCA3QutKKKzxwEDz4aF7MJJJv1/M7aEBD2lRVrHkqCPpWYGg4W1U87bPcIYSsLNoFTGnCSdQWRl4Ww/yUpLb2C5ysBrjW0s8epMEn8Hq+DB6jWUqnnu8cWYOqWQFrg4ApqdMMP6BHBcwBEHv7lNPuuy4/T5pbQ8NoCvzW6YBQYuuwsdPQ5olVxEDXoAQeGXPAkJekqLtFIt6F0JHKsdQyG2A4MkxUxMNYPICGMocfxBH8hWt3i6stCAJfP9pnOLxUNliQimYI8dUFToiyB4BXB6Fep5Fifm6jFlYj7sDi98kkS53mh1G6lL9wmQmEB1G9PnxIOCxfKF4YbHjk43DEoObV1WtLq8ck/0UEhha3TR60bUAoX4kdLciGNJ0CHziI8F2OMw3wejmjqWMBRrKmZ0pKxytbLH7Fh22vQC5OcaaEnooR4XCMey6LVDEmIrOrWxxJ/jnqkDDGqcUJEDtV4Fn0+Ez+mhDK5e6lYX6ANBCKGFImv0Vqsb5RNzsWhOkLKNmO1f93hhgIRm0kGVDxULKarpLnYn3EX6G63RYy/ABsdYEXTI5ZmxkGgP+MGQyjjsBUPYdxAnk1AJi8u4ZK6fH66mw449Vhd0LAOnOfaKiGH14Hk9WAWH1gwdTi7OQtnUIrQfNePdR9egqbkHmQaVn++dkEOKgYIXuQ6dRO/arDj3tArotMG0jG3tLnSAhbXHjpouG/KVoVVpIZ1XQzS6szvRqTz80t7hINWCnmhLoUTKNZONwUo5Lx7h86dqGTN5iHTOMdlmbAL7HRiVOP1U/zO7tsMGOH3IECXY22J32+K0EyFaHZDyTNCV5WDauGwo1ErseHMbDn3yNRVwnrC5UgYaD3XGBcrJSTjOI5vtF5weTlr7RZsLWSoODc3dsHoIX3zgk2jOOP+AQuKCntL2WqkW9EQzOseSRn9nkITniSNovmcOgS5YSqAgaGq8bLYySGx4c6wdusz2S2ZOK8Rc2eNe3e6gdeii4IXPHLshgib/JLAGLVonFWB6cRbKJ+XjyLYjOLThAHLKcsCzDE3/I5VspGpNYsIdaW09DkyeVoDFIWG1gz0e7HOI4BwuVDeZkatS+llqBsll93U1xX1TBsA3WtATZXE9PknXkQwQf8OWQca5coTOfdEQUlSZIWYVKuX7fA+AvXKWXLz4NJbpXrrkyeXosOdfUDkRrBxO20tCa6QjyuGtgwqX/vzvAKdMgTFThylFGdQcP7RuP9xWJ3i9ijrhCETSVdXmBssxfeSQ1BPfbsd5i8ZDpQzeuvVNDvAKDk1Hu3HU6oZOEc0JF1nEIsHbmjAhcbyJSElBqlNgzfI23OSXhBtTJxlEq58cY0jC4PqLJJ+TCO1DQ9g/Q3YcCnHmumsSiBg8HetDu0f6CTLVuOgsv+ksiBJ2NlsBDYfe7WtiDsyVnAi+OA+NPQ4szDWibGI+GvYeRe2XNdBnaEn7UzAqnnrdlU4vvDYXXcszMgmkl5SiaXhcdEbQbO9w+rCl2x87/6yx098Pve/TgXLZ/QIvNCXUHaz7m+51J9iXwLEFYyye/vIgnxMT+5Iknu8k2QkYq7FDJDi5wqxCZpGJtVUkIORH5Y6vUVG6ZGVWV4vt4jMWVODEKX4CyINtdmzpcEDvs0Fo3R1zcM2s5bBanMjlOUybnA9WyaF22xH0tvdCoVSA1aogqHjwJLTW64Rkd0PiOJnDHWjvtGPOrJK+2D3B2qMOOFke7a3dlNoOSAAAIABJREFUqO92QK/iItbliPIakOy9gC+hxLb9iRw8HIyGoCfaETXlvaVjoEY2b2PhjgTPQTTsbQBek2mkx2rW3TWxP2Z+DpubverCYH3N9vpuwOqBt2qw5yWgn74IPU4PZk8pQF5RBjobzaj/shZqg4qmukpGNU2HJRB67DSO7u/W4u+MCrMDFy0LkvdavSLWd7ihE304WNsJg4KX1+ahiF6e6mpNmAZkV6IDDBXHoqAvSNJ1JAuDlWbOHaIGjgTphPoogO+N6reMDbKUWD/QHoVLVhc2dDpvGXdCIb535tS+9z+v66ZNXtwbB26XTDFxIVp9CkzNN+G4CXlglDyavz6K9pp2aAxaShTJmLS0wEVyeyB1WSkDbKA01eUWgBwdLjkreO61jXaYwaGrxYyDZjtMaj5CsKMRQvpDbK76wZ7tgyLl7b+PRUEf6fj0UPGPOBKBHk1g/MUjd+lJwa/krR+KKlfnFS5edQ9LlmvNvdk3f38mNGp/jNri9uGDI91A7aeDZ5jNvwq5Gh6nzakAp+DgdQlo2FlHyRsJWK0SEhF0Iou9Tr9Gp51XGKrVza29OPeUCkyp8BcVkrrzD9rcMAk+HKhpD8lrZ6I43iLBwFX7VaL3LeWCPhoMM3sSrNxfENL5dqyAaPXfx7iWa9RnXL8mc9Gla1ruXtqvPLH41CcekTiepPj+q/nTm74I+YhNpFNpCnBdtB7wxUtWHe/yCNc213f/hM3SGElb5OypefjpZcG2yJsOm1HXagc++UvMq8yeNgfTKuejvDgTJpOGtkc2H+3C0X1N0BDhdvmAAhMEnYp6G/l2C0Snl2bNESccpZFyeHHZOUFt/lG9HR0SC6G1Cwe77CgxhAYlIqdmuGYnzDRCY0KWNxkotkNiBDAagt4r54ofN8zjTfI6fciP1dLfrrtLZJgSUcI6HtjfcO+SRByDoSDc5g/EspDc299/nTvt0raS+9eTWbKDlaT1br3m87ZbF9gUovSzTo/HaOu03Yjy+w8rsnUbc3WKte27nzP7enaNuZx5JmeCz3D2Tw4YZiycCoPmbLa+s0rcuFcvccqLmrtdlzYd6FiGDA1u/vE8aDRKPHz7Gtz5zHdh1AcZtt77ug349G+AJ3bl8uKb7sPkORXweAXYbW5kFGbg4Ib96G3uRkZhJgSrC3y2HtAowZNWyu29kPhg+KzN4kL+lDx8Z5n/eWnxCHi31QWTIGFddRsylJEiMLCQE/hIWE1MKClxf4K8DMPCaHHGfZaAoBOcORRBL7lv/TiwWCkCF1K6X4a5gZgDJfevPwxIG1mJ+YAHPqy5d8lwfwAHYyj4t2RtvWqgHSRzPSw7P843zjyD8KYv9wF3Kni2c/yvP66v+dfn+sWnVuC6u0/HB1U1k9ZtPzqpub77R1At84E57ITk4GUqKCGGJeMdoPCH0CN6wXLKPhOZFHqIvugmKsv1HdUHTgk2pxTsxBOhPv40mCbM5DmnZ7rUaZ0uHGy5rfFwWzuO9Gih5PWTj8/Hd648CVedPx0nTCvAsqtfAiZk48ar5/QN12nz4KnP9gK73+p//hDoy6eg8IS5sNr9RhDHsfC6vGja00g7qLCE7VXBgsnS0Vg8a7bB22UDq+b9nHIMA6GpF5fffBqMBv9DZk2dDb0MB0dTK/W0FxrVIUuHSMGOpHlmYD0UV5PcWPg80QGGg9EU9OsSOJ4I+sOD7VT623WFIsP8DMDt4QLQ9wNOAphJIiP9yAOYS+5f9wYr4YWGe5d+Fu+FjL93fZmPxV0er/Oq1gfOibmv5e0/wHj8IkCpBmtUg7O7cqxbqnPQbMEvfzwfFyydjKvOn4H2Lge+2tuC+voufvPu0/hPt1fjSLNNAYuLcJ8fgVLapdBxh9SM60v4bI3W/X8+JAs6idk/GHZSTskU3PGaklWo4KWaiIGC5dDxv5Xw7nwvbFcmowQFtz4PkfFPDEYUaLEIK/HgvABLmFEtTpg37IejoZuUndF7OWFaft7pP12AcxdPwPlLg57tB/+2Bev+VYVX3vtl39qc4H87W4AXfjPovT37Tn+LdkaWQ5VRDXNdJ1oPNEOboYdImjMYtZAydDSvXWztJQ3PIVCaZxFuUoaqV+GaC/1Vw51OAR93eGHwevFFdRuyVYoQT3s0TR76t39H94GYiX/xIO65lUyMlqBvSvD4hTIBYz8NXPrbdeRXWSoyuEoELuuv4QYi4mdIEs9PfJB+UvyHTzeBZf/BbTjwasO710Vl6yy5f900VsKNHobSJ/G8Ug1u8kIIh2J8NUlC099vRfFtz4Nr7YFjyxF0bKzGjfcsp0IeQF62FssXT0CXMAFXXQ0Idjc62q04dKQTn+9qnvBVdeeEXYc70dDhgGR3AEX3NEDFN6H1PR+cX0SckyhpA00PZUKyvhhVlNZfIgO2ww3e7aXea8HugcviQm+PA1K7BSB14xJgLDZg8bRCnHL1bCw5uRynLyijXu7AXf3Png48t+4wPrztTZx2+Wm47Oxw4+2Ou38NWGJnluWMPw66qUFiWbLeVmiVaDnQhJ4OK7KKMiESsz1HD9aoBdvrhJcIOsfQ1FeNWon6Ix1YumgiZk7zr37+V2eFg2XRU9eBoxY3Sk1qmdhmIE0eLvCi2wGxKWE/2rdK0KtlmqJ42/JGgqgH0r/oTfiFexrAzBQZLBUhLZMTQmIT+/VrgwuwxNGi5AkV0UJpW83ChiPtf8iY91iVXvQ9efTL2zeVrt6qR7f9QojS90XgXJEJHyP/st+g+XdnxbxwqWkf2h6+EWLGxRAOd+Hq25Zg9T39j/nqaC9mPrYZZblanD85F5VTczH31Ek484yAU0lCV6sVew61Y3+tuXRPdWfpx+8fRPX2CEEXfWj+90ZArQZUCmri0q9b3T9XW7Ja0PT6VlriScgaSZ9xPluLCQVGHHfGZJroMuf4ApwyqwS5ueHNEDfXduO9PW146UAnagkH3Pu7gCwNnvvD+WH7rbj7EXRuGLyL00Mrn8GbbgETZHIIQirhdXjR9HUTOJ6lRSokrCblGOFRK6CqbgN67LBYHJh/+QL4XD7UVx3CtRf5s6bbHD5s6BagtruwraYTWVqlLOTx+oUZWKu/jGO/mGiLu29+kjGavO6k1e4Phnswkz/5weIbn/0xwEwVw+iLov1og1H1ymmNHAtOqwL3VR0aN1dj9pzSnN1Nlu/2NFq+m7/s6c/5pu7xrlxjAScItMFfJFkgaY6fceGd6Hn7DzGv3du6HXDn4uFn7sHtP4meFpBJyihZBvU9Lqz+vB6r1x0B1DyKszRYUmLCwkk5mDk+E4sXTUTlIv8xj2UewK3bw4WI4xT4+fdPQofZjV6LG2aLm3qOv65l+lW6qDRqXHvtPFQUmVBRbEJpMYlb58CY1b970NFeD7bXmvFFXTc21HZjc5OV9ixHiQnjzD1o/LoRj/3t+5gU0u5o69atWP3A4PlDl156KcafNBfsvh4/ZRQxy3QadDV0ov1wKwxGHSQSG8/QQsw10CWF2GyGz+5GZlEWJi6YjLeeWYvsk4pxyZl+a+LDo3ZYJKCzph09Lg9KjWo/t3tURIbY/Bfh3D1gqkC8GHZ76UQxmoL+YSKCLrVXTxW97qmsQj1AP6xYPyLCzDRW8gu5aNRCV9OK6v/swOxlk7Dx1R/g60OduP/pTVjz9p5TsKcZJadNAndcEXzZejAeHxiXnwlUZPxjG+eeBcvW/0JsHiTLsfsDfGfRE1E/OtBmw11vH6BmaIleKV+rimqgJqcP/9rTin9ta6Ill9AqMD9bgym5epgP9g/nq9U8Hvn1cmg04SuYm27YiaeeCfcLjS/LwjMPBrkgyYq+weLF1iNmNLTaUGO2o7bDiaO9LnxqdhIXNklYB3QK5Op5aItN4LptqHljB0696ETc8sP5fWNZLBbMPzlWWYD867AsXnzxRbxa6+zreErMdqVOidb9TbB2WGAqyoRkcUKZm4teoxaalh6IXVZY7S4sPP0U6rTrXLMbdz96AfUNkCy4rRYRbI8Vuxq6UKRVhTDGRprqkfNGJpf0uuA78Omg1z8IPkp0gOFitAVdGGKjgCAkEdYDX8A0IzKfZLAfLXz9RYRcUisgqhTQHWxG9avbwJZl4tWVl0Cj5DFnegH+9/R3sfaqOXj0r5/jwzd2A9tqUbZoMpiJhfAYNZSIkFROiZJICQ/yLr4Xrau/P+hXmDdvHmpqapCd7U/k2HTEjH981oDnDnZSi2FCtgZuEcFrZYASko9NNpO/24hFkLCl3YEtRKPu7s9lYHf5cOXfd8Bk0CPToESWVkGFZ+vR/gGGmi4HLnh2G9qcXtQ7PNTcpWY8SUwh/xIzmjxceA5qFYesbA29JrLkkdRKWjVW/84uwKjCv1eFp/ifd955cVEvPfHfd6FSqdDiskMltzIlzRLdNhcadtX7C1XI+RQcrAYNMg0aZDV0oKbdAoVRg8mLpmL3+n30Gq673L/G/6LViXqHgM76Tli9PmRqeFmbR7P0oifMkLk2YIfX+CB8WzU6qd7ZmkhKq2PHh1EEvf/a2w8p4gckDQB4eDVKqGwuYHsdqv+7G6bpBdjynx9iwrjwvgXLTimn23+vmoMHntqEL1/fAYzPxvjFUyCYdBAtdghtVrTVdwGNZkB5AeD5X8zrJ1pu1qxZ2L7zK6z8rA2/e7/aH4nP0mB8VkDIB0rLBC29zODJxlK3RadB2b8rgCTirYNmgLf6+dICqoxkpUXA7fBhTU03tSSIUOt5DkolS1lWWSby3obcV56DpORgIwK2txn/++B6lBYEafi/973vYePGwVuu5y64CDef5/dXdLoEyjpDTHeNUYu2A01oPdACbSYx231wa5SwFWXgzAIT9n3Sg542CxZetxhaoxabnlqPq384H6UFRnq1u6wCXN1WHG7pRa5WESLk4Uuv6MLu/9exI2FlvC3VFWuhGO3ea2sSEXThyBfwig4oDFm0iIEUN5CJTEImXso2Ku9HJynrn6w8B5+Co9zfrM0JZX0n6jZVAwdasfTyWXjp8YtQkB3FIy3jO8sm0+3Pr+7A75/+DDX//AKKiiwqcAU5esw9sQDl503FwrmXY/PayXjy8T/G/A4NDQ04bspklF/ze4Avxvg8LTyEDSVmg78hgGFQmKsFr1bTEk5BplzpNaj6PRQYnkGxIbJ7aCR/Wriwk15ool4Fbs9R9Ly7F3f+4Xycv3QS/aylpeX/t3ceYFJV5xv/Te+zu7O9wQJL71VAQJQYSxR7iBo1JpbYYvxHTdREjYlR00zUWGLDFrtYsaBIEQHpve0u28tsm97L/zlnhmWBVdoii877PPfZ2Z3Ze+/ce79zvvOV9+Wyyy5j3rx5+z9fXR9u+neiSs7uj2IPxjCICHo8jkanomp1JT6HD1uxjbDLj6cgg4vOGkt0Qw1bFm4jo5eN8RdOZs3cNdDs5qYrEssETyhGuTeKNhqjNZCQesrUazHp1F0IPnQdcY96WomWH3Za7ZtH/SOMo23or+2ndHS/cLz+PNknXozSoieq1xAX6h1KpUwnRZNRcXU8KaonhO29IZRuH5EGB7UbaqGslexRBdzx9E+48dLxB3zcq2eN4aczh/PAf7/kvtkraN7cRL+z83jsvjMpyklEpGf96G94vB6e/u/j37ivlpYWWv55FarTf0WF+UyKDJ1vy/6khnY/nKquXON4HLXbR6wtQMgblPRKYhAMt3RRG6SAsEmHOpwYNDWxhKsalv5CkkJJiCOo1LJTTBA7iCo0U2ULZS9/xQ8uGsN9N58oP/fFF18wY8YMQqEDkLVXpsOFf+Wk4Qnq/kpXiLZwlF56NVqDFleDk0rRqZZmJB6N443FOOmHw+lfZOW1BzcQanYz/e5zpWf92X0fcupl4ztSanq1ghINLNXp+dGUgSj8QTZXNNPgC5ItlhvxvT29fQtlXCs/3v932D9e646dHCqOtqGXJ+t+D7n1NLjpXWrr+soSSLIsUoFDZdVhNGjRi1FbAaFQlLA3SMDph0YX2N1ClJxR44q56KbpXDVrFGmWg5d2Mxk03HPjCVxy9gju/+8Snnl8GcUnPMzDt/2AtEEFLKr3sKDvRaB+ESL7F8+Mzn0IZcNOOOf/unArd+Hr3M24zPPug1iYmheWQUyZ0BEXbr5wzav2ZTKKOxrQVrYQTzOg1GuIajQyiCHYU4U9iLW4yDioAmHC3gAahw+1P0jZwh3kjihgzuM/lvt56KGHuPHGA+fbUPe9gZPGl3Bc8hbUeCIyxifW4sZ0AxuX7aC50i5LXgMOLzkl2Yz7wTDKl1ey/r21DL9wIqPOHsWc294At49bfzmlY98apYIbh6dTaFTxhSje02koyE3jnUVb8YSjGNWKb3TdRQzHu/TNA/4uX4NVyWf9qKEnyCa/cHjdXQGuuSIftXkAOypaaWx009jixu0J0OIPS+kenV6NzWogL9tE35EDpd7XpFGFTN1LkqczVlY5GFVk3YPkX+Cu97cyvTSTEwft5r/o3zuDp+89g8vOHsGN987jhsuehbxcOHkwlOaR/tvZOO69YL9USQKxNe/R4G0nd9YdJDIKdFHkw14Gn4Bp6DQCGxcSD7gToZ+QH0veOH55/QmUlmTRuzANs1mLxahh3md9+Otf7sDjdiOyheFwFMzjqHlpGYgqthwriPJQ0QUmBgcZkItIzTJaEsoqfQsslItWU6OGRS9fitmo5bbbbuP++785vdgZOYOvxJ6WzVnTSjv+utMTkW67CLyFvCHKl5WhVqlQKBT43EFGju2DNV/Le/d+hT7dyNl/uoDNn2xmzbNLOP+6aZw4oRdOd5CWNh/5uWaMeg0/HWBliivMPWtbsWSYGd0nh4821WGU9fdd0UUl4BC5c/9hL62P6mzOYXSQdSd67485dH+YNm0aCxculJ8KhqK0tPtwe0P4AyFisTgGnQarRS8NfW/D7QpXvbiOJz/awTu3TGXmyN01PS8tr+Wnf16IcUIBzb+bhlHTdcLgmTfX8cd/LKB6dS2M60XxqN6E4800PnoQVb+6dMzn3UL6oF0hjK9z29lrzaxEYdBSO3c96toWapbc9I0xh84oq25n8cpqNm9pYkt5C012D4FAQuU0KtbKWhW5NqOUGi4utnHrPz7HUdnO5+9fQZbJLWfx+fMPnEty7IxrKK8rxDVtKBVPnC0fBJEK+93yFvyRGDkFaVSu2snH972LNt0kBR4EkeS5982SoYM3b32Fs/54Htl9c3jmZ//FXt3Gs/85D0e7n78/vYxWUcueZeGskwdw/60nodOqWdzg56FyL1qXhzlflpGhVSU12+jC4BXUP34DsfrD6j+PJ2WqDusZP1z0hBm9CoV+A/HAIcsYLVq0iLVr1zJq1ChJ/FeYe+jCq7e/vYUnF1XJWaqzAQUiMW79eAcMysLnClHW7GNEQdfH+fl5I7ng1MH8e/Zynnh+JTWzl0BhGqbpd+FdcM8BzewEHXj+dwf+QVOxnX4t6oy9m9h2G75YP4u1s/DIY2YDmp12WLSdO/521gEbuUBprwy57YIYJH2BMGqVAo3Yf6dOr5vv+xTH6lqee+NnzHv3v/zlLwcXajnuh9cz6YQzWXX/51x5ypBdpYzsdIWpC0QoMmik616+aBvhYBiTWkW73cnAEwaTOyCPTR9vYPLl0yid0pu3f/8ezkYHpSMLeeChxWzd2gQFGaQXZ7Kzzce/7v6Ijdub+WT2hUzNN/BOnZ96v4Zcg4ZAKIpS3XUqNlBfdrhGTpJF96gaOYecw+5uKHVh4uGDEQnYBw6Hg/PPP/+Q/7/dH+baVzbwiDByk4aRJence8ZANEkP4B+flDFnZT39coy0twcZX2RhdK+vlw4XA860Cb35xazR9B+WL7uutm9xEQv2g3DVATMwx1uq8S19k7BCiTqnAKU1I+FKq9WyMERssST7qSg2UXsCVL61ivzSbF575Ly9VEcODsJV1mpUkitdqVIiogxf+eDy37zN/+57mbMvsvL8o79j7ty5B75fhQpV74t46IFbefn1NdTZ0vjr72bQ15A4TzHjLmsN0jvfQuO2Rla8vBRdmkF2locDIcb/eCJp+enoTDr6TOjHtoU7+OK5xVhtZoKuAG1qFTknDsY6tgRNaS7WYUWkF1pZ+79V9Buax8gheVS7w6x3hHE1u3AHw8l73NHz0PG6+YNHiDcfto3+/gDoxo44esKMLvRnnwfloxDTHMCnu8Srr77K3XffzaBBgw76f19eUcfv55VRUeemKM9EbYOXO2eUJoX2YEODi999XAbZJhkkEsUYv/q0nFOH5VGQpmNFtZNny9zMHJRFqVFJL6sGbZLOOM2q5+cXjJJbWWWbdI2Xrz6TV569F2fj/tiidyM4/1m5KfOOQzHgZGK2flKaSHRribp08bAWpOlprHNAi4/XX7kUg+7rb6+QQlpU76PWGyZdqyRTpyZNpyJDq0SjUhBRKHCG4jijUO0JU+6PURGM89S9L8Cr/0Gh3MrbL0W+dv9dQaHNI268iAfv+QmZaQa+mruRaX+9kBm23ee52REiUxTFqFRsW7AFj9tHpjUTX7OLokGFFI/ojc/hl/l1UUSz+bNNhH0hqZWuKskifXw/WQAVDQTRhCNEdVrUAwqgVwafLCrnkvNGUmjWyMYXkTXwxffuekq47xF7FdHNh13yKmSXDjuS1x3oGYYOIYWh+Iu4v+rEw9nJnXfeyWuvHVjco6zFx+db7PxvdQMLytqk1nb/Qgs72gNMLrVx7uiEq+wNRTnp6dUyH91PpyIYi9PPpKa8Pci5T6/izEFZPLeylh1aPc1aPepIhN5GNf3MGnpZ1BSaNDLim6FXUVpik9vl54/i8b+cySUXX8qL/3vhoL5jTAwOjctRagrJLJ5MTtFoBpT2JoaCuUt2Eqlx8djTszh+dNE37scbivGvrU4coSjW5KxvVCrIEpVzSgVefxi7L4TdE8ThcuHatJT2V2dDQ0KJ6mCLxJTaXsQGXEt+ppkbLh3PrGteg+JcLjlzN1lknSfMFmeIwtw0GrbWs+OL7VhtFplLDwTC9J0yAGOGEUdtO4YMI86aNpo21mDUKFH2ySY6qT+qSIyYy5dYxoiUYziSqEmw6PEHEwNTmhgIYjHC0ZjUausqsNn86bMH9wW7hri5B5BfPPLoKYaO2pJ/V/gwDf3111/nukfeY8r40aSZtGSYNBg0SsKxOE5vmHZvmM2NLtbXe3hLlIy2+WSjSFGOSQZk/GK69ob51dTEilH831lPrKCl0Uu/fLM0cgHxs79Nz/JmL8urHKBT0i9NhS0cQm/UUesLs9kZkrOmSa0gW6ciV2xGNTadknyTmhyTjsdfep5Jx0/kuuuuO+jvGgvX0VLxutz6pp/L5nobkR1R/vKfK/jlTxKUTY5AmFWVDmYM2pch26JVMj5Dx2ZHkEydSkoXiVLTrZUtbN3Zgt/ZjKd8A/7ty4mv/0Sm6Q4VausEskdeQsOmBj547We0OAK89sRi8m85kwsGWjv2ur4tSHskLgfUbfM343N4sRVn4nN4yOmXS+mEfngdPpRqpcyvr1pbhaPcTsaEfsQn9pf5/2gwnAyudWpUEsQVbV5yshLxilAsRiQcIxiKyPTb3oHOQGM50a0LD/n77rpF++O5/zbRYww9bF+2WKnr1RoLVmcezn4e/dvdPDrznkTOWLjeYmiPJ9Q1ZXpI3FStCrUhYeC7nE9ROFHrizKkdxqzxhfS5ApxwexVLN7WRknBLiPfHbDxR+MUGdVgTFRY2QNhXN4gaWlG0iNR0sUsk7zbvmicbe4wq9qD0uWMxxP53XSdCv2oC7jo+eF8eM91tJcdWq/z++++1fH66b8vYvVnoxk5ciRzanWs9pup+NMZ2NKsWCwWWUxEsm7eGg3Q3tKMMuLFVV+No6GCitWrqV+7EhyHq54lp3GsvX5CRskEqjY2cs31Uxg9OJef/upNSEvj+gvGSF6wXVhpD5Cfa6V2Qw1lC7dizbbK2dzvCjLhJ4Ox5KfjrGvHkmZky5Z6FlU0kz2pFMWoEpTRWNLIO5+AKHNWSZ532v2MHFYg/yoi+75QGE84xp7CLIn72zb3scP/7omqz29VjeWb0GMMXUCfN+ZxX1X1HYe1k+rVpIXKMWUPxxuT2RgJUfKoUer2+Ghk7xSVSkGOXs2jC3by+PJaNtS76Vdg6pjJv65RRqmI447ECAbCMhUlHk5hUDpRsBOLo1clGjHC4UiiUk2XCEW4PUF5fpmDh/Pjlxay9Kl/sP7JezkclJeXy+2NN97o2Evf569Fq9WSnp6OXq+XQbZgMIi9zUEsFDywLMBBQj30ZDLNJ6FXG6mqdZAzNJdH/3gaDc0eXnpsCVz7Ay4el9Wx00pXmPWeCCX5Kj79cB1+rx+bcM9b3OQPzGPwCUPwtnkxWfQ0Njn4ZOkO0nOsqEpziYfCxAKhTjP57vsq/BBXVTNkGzklqYnujiDpqdpCEYqMu8JCiWvgLVtFrHJ/QrkHhP3RgH+r6FGGntlnxp/9dUtvi0eaDouG2vXSX7Dc8xZpvoR07m6CiK/j6k78vcSgZr3Dz4I5W2XkvV+Oaa+ZfG83b/drWSEu6r7FeKFSyWj15u0NVDc4yUwzUpyfTnq6URpZs91FZU0bDa1uGc0uzkkjL9vCpIuuY9iJp/PF43+hetEHh3MJ9oEoRbXbD1vTe79QFA3HdvLPMNSaiDu81Ih7EI7yyeMJWvrf/mUeGA3cfuH4jpSawJcNXhTpZupWVFCxZDtpOWlEonGCvhDDThuBPstMoMVDMBJl8cpKIvE4Bq0KlT8or7lCsW9JiAjK6Rw+mr6q5Kwzh1JSlMiSiOBi1BNIlgx3GrxjUdrndIt9LjsAtd1vFT3K0GsW3BAw9j7rM1/VOwcj07sP4t4mPG/PxnzuL1CIoplQ53Xb3ga+O60SicUxKpUYsxJx2OAeXQ9dsdUkXgejMTL0allGG4neFIMKAAAgAElEQVREMZt1bNxaz9yVlQlGF7uL7KoWMq16lAoljYJ3LRAmXaMiSJxtrR7Sy9XY9Bq0WjVpZ99B6ZRLqf9kNr6VHx7uZf1WoMgfjOWHl2MePgXlkm1E2poJaLTEKpp58ZmfMHJQLjuq2nlBzOZXz+CnE3fHDURxzDJnDJs6xoJ3VsnrqtJqaG9op2RMHwZOG0KgzYtGr2HZ8nLK2zz0EtTPYhDf5/7s5hgIalTEypsQXHs3Xp7ojW8MxNjY4sfv9mFRd84uK3AufRfc3SJb3qNmc3qaoQvYep9wnb92yfZ4tOWw9uNY/BS6zBEYjx8rjU0hWEj2qYDa+3Vn7K9TbFerKLQFIowqzCAjw4xWr6Guvo1P11WTbtJh1SZ6n8OxGHVOv+yo02mU5Ft0ckYxi2Po4jLw5w5F5UzlVwoCx0yMY67AFx8Na96B2KbDuh5HCqo+Y0mffAH6oZNRGDSwooJoVQsxgw7HpibuuudULp6ZiKzf9uePwWbht5dN2oMCeFGdjwaDgcBn66hdU4m1yEbIH5Ipw7Hnj0epU6ONRqmqbmVxhZ1cs66LzrM9ETVoMDn8VMzfxuk/HsWJExP+ww5vjE12N+0uPxrtbuGGqKsZ9yfdEjvbuIvirCfhaCi1fCNqF/3fDlOfk9cc/p7iNL39ALXvr0YjjFywhSoVsjFj1/td/c++v+/9+T3TMcILEGXl/ftkk51pwt7k5ENRmy1IFLWqju4ojVJJmlaNWcYKFB0ttOKcBGmDYDMVbDBWdwDLxlrcc1bT8toKsmIZXHvHX3lr7nJuuukmbLZDFaLtTiig9ESKrn2Kwp/9DdOQSUREJdvaKuLb6ogbtNg327n2xqncfcNUedxVmxp489nlZFxzEheO2V1o5A/H+MQN2qY2Vs9ZiS7NKPnhRKXb4NNG0mtMCSGXH38gzMqNtdLj0u1Rxrz3ciphuCII17C2Ui4bHrj9Bx3vrm4JykIZRziCTqHsuJ/2N/8O8cPia9+FP/UwcRGJHjejCxgLx13lrfx8RTxyuG5ULeFV86jY2ULfmaOJ98khJLqvBNG/orOrR6fXXzeTd0UuiWycmVqaS9++OazdUMvnq6vwhiJkdZAP0smdVMhuOrEuj2s1si5dKZYV7V5CDQ5qtjRCmV3K+544tQ/n/e5Ezj55YEdJ7zmnTeCBBx7gvQ/m8uB/n+PLz+YRC+2/K647IOIOoyafxCrdYOg7gf69iwhGYkSFXLFBg2ZdFeGN1cQ0Wuxb7Fx1/WT+c/du0svrbnkHRpXwq1njGNnpfD6q87MzqqDh3VW01bWRVZKFx+4mp28Oo88ZR9gTlFWGq7fUS5c9X7jsHb367OOdCZdd9MdrGhz4P9rCbX86lWGliWVClT/GR5XtBJodZOt299171n9OdOdh87WTFMF8/YjfjENAjzR0+8LfrEwbeNkG57bnDrn+fRd04Xn0KpnIjv8uxnryILIm9CUkZnd/kHg42qmhoTO6bhjZ/fvu90Rji1at4stlZSzY3ki6WpU08ngyIo+kmYqK9aJKiUKIDvhDqOxOPI1OWrc3wc5W2Q85cmQhZ94+g9NnDGTSyIJ9zmpHs5cPNzTxamUOX/a/Ekp/TqZrB96tXxLauY5Yc9kB0TUdKAYOHMjkyZM588wz2Uhv7lzQKAuL+lm0Ur9MNM+IwSq+sgLF9kYCCjWObXau/tUUHr/7tI6jvP7+RpZ/WsbY2Vdybt/ddWhNnjAf+lVEV21nw7wNMn0m2FsjoQjHXXy8TK8F2jy0eoOsFak0gzbpCSUNuoP1ZhcUhLUq9LEYO+duoHBUPnf/ejcD0fymIOurWqn3BDuEG8LuNhxz/tpdl+z2I5LC6Ab0SEMXSM8fc7GrevH6uP+b+b/3h2DQRy/Np5zxh1t48OHFuNbVUnzaMFT9cglbtMR9Qcn5tudD0/XsvfdsLwJraSJSX91CWzROYYaZuFqxh5i+6LhShMKoXQHCbR6a69sJC8MWPOlGDeOG5zPjnGmcekIp0yeW7PNtahwBFm1r4ZOtzTxf1p4o8jFqKMpKBPZi2aMx9EsUyMT9LrzNNcSaKgm11Mjfo0EvMaHKEgyIi5EY4AR1VjSCUmOgpE82owYXkpaRTprNRu/iYoYPGyaNvKioiFZviBtf28RLgowy00BfnRqfoFq2GGTtuXbFDkmdVR8IE2v2cuedP+SPnYxLuNyXirz5ZVO45KQBjOj0xL3SFMbe5GHDK1/KllS9Vk3zzmbGnjue0qkDpYttNurYsaGWZl+QEhHsTP7vnlTbnZZVBi1ty8uhooVXF10vsx8CtcE4L29rI9DQTqZOK+MjYrBofvXPEN1HDu9Q8OnR5ITbH3qsoVctuHFDxohffdK+/qEfHu6+PvvsMzkrLfrgapneWfr8MhhWQOnUUvwFNiJqJWpB3yzoqDrZuJjtw0m2GjEbx5NVVFFFXM7Mgq1FFGoYYlAgWijb3HIfcVGcEwhJLbBQu4/GRifRdi+iSWp4bxsTTi1l2qS+TJ3Qi+Jee665RUBuR6ObVVUOlux0MKeyHVeLPzG+pOnplW/uWBLsZkdJnLTCYMXaZwShgaMwi9y9YKkVRm13U7utAbY0CDJZJp3Yh19eNIZLzx8l/0+U/T61cCenDslmev8sdjk5H2yw84u3N9PU6KEgzySvQ1hkBlRKydCjWVMpudRrm32ycOi5J87n0rP25BC56ffvEdDo+fFVJ3KebffFXdQUZKEHGucsp7HcTmafbNrr28gfWsi4iyYTFC67WkVrm4fNNS3YDFr2razfkyAiYtGja3TS8OYabv/zqRw/trjjk69V+fhsaz1Kb5ACayKYZ//yTWLVh62MSpL48ebu2NGRQk/oR/9a9J7+76y6jS/bIy3LDvs8RZ515cqVkozxPy+u5N5HFtOwvgHGFNN7bAnkpcuHuHM4V/LQhSMoQlFUwbBkZo0LtzsQIuoPgT/xUxmKEg1HiEcEa2osUZGlVBJGgSndyNCB2Ywems/wQTkMGZhLcWGarM9uD0TZUe9iS72LeoefTY1edrT5WSeolAXBg6hBN2kl86t6jwKf3csCUeIpOtlEAEuw0Cp9IWncEbuLhopm2GGXTS+lw/Pkev/n541g8KBEHf+KWhe/fmMTX9a7+d8FQ7lwfKH8+85WHw98UsYTX9aCXkX/TCP+ZPZA0epFUdEE1a20ufz4Gr2MOL6E2ff/iNGD92ylXbCknBNPf4qBD1/G/WcM4uzkmNboCXNnXYyK+RtZ9q+5WHPTCMiahzjn3HM+uQNycTY6saabWL6igs+3NdJLGmdXBBGJAGtIr8VCnB1PLGDUwGzWzL264xOrXXHOfH8breuqSDdqZGA0UL+dlsd/2V2etiilu7Y7dnSk0KMNXSBr/J1/aFl57z3dERHNz89nw4YNkl5ZMJA88sIKHn1uBfUbG2FgLnlje8uWyJgrIF1cacwuP3F3QObjxZpeUh6rVNLVjBs0KEVQx6CWP+NCTF+rISbIJ3VqgjoNFouewflWmUMXD/LOVi/lDj914sEWTRaiNC6cILUURiW6sNK0KizS49y9ZBBrYWnZQldMqZIvRc5eK4ghvAGC7b7EsqCyBRrdkhJ68KAcTp7Wj3NPHsgJk/vIPYmr+PSXNTy/vIYl6xop6mej/PZpcpauavMze0kVd6+oB0+Y7HwLZo2SqCdIvNVNvK6deKNDUnK12r2Qoee2Kybyp19PlxWBneH3h8gZ8QCe08dx180/5PYCJVqVQua+79sZYskWO2vufYuQqDc3anE2ODj5/05nxGkjpSyyxWzA3uLizUXb0auUSernrmInCqKiX96kp/q9NbCpjoqVN0sBCgHhlF86v57X5m8hnThWvZqw10nDgz+TPf/dgNaktPX+NPKPKnq8oQsY+l5Q5694fd/o1CFAEBZ+/PHHMoos4HAFmP3GOma/uZZ1X9UkDC5Dj82ikw+mOt0MuWkohBa3IP4XBi4IKFWK5GyqShigWI8rE+t2AcGtJmYgIVLYIJYFwqAl8ZpCbsIw0pRKWWud+FMiIi9+icu/KyWZhHhPLBOEUauCURSBIHFXAHe7F2eTCxoc0OqVidLconQmDM9n4rhenDSphImdOthEh94LS6t5RnDGC49BoWDqwCyeuHAEzkCYl9c08tCW5HtGDX3jMRlToM1DvMUtq9xE2air1S/ppWaeOpi7rj+eMUPzu7wJP5r1LHPtIS5+5FLu7aujd7Lf/IWaAK/XBSj7x7tUr68mvTCDlp3NjJ81kSlXnoS32SUZetVqJR8t3MoWu4tCs66Tqsq+MzppJjzrKnG8uJw33vkF5526O0v/8HYPv3p9LTqXl1yLjlg0Sv0ztxCr7oYMbgKXA7O7a2dHCseEofea9s/BtSv/sznm6x5+vVtvvVWmqfbGRwvL+eDz7Xy6opqtFW2yEQKbGYoz0BemY8kwoRNSSVqVZD9VqlTSOIVBynW8ImHPe7Kx7lsfLz6/q8I6IphWYwnlUk0kRiQSRxMKy8izSC0JUkuP00e42QPt3qTQYQxLlpHSwgxGDM1j+JBcRg3JY/zwgg55YIGtjiCvLK/h5c3NbG/0JAaYNB1FOjUNkRiTLTocIqK9sx28QakLkRcOE3P4ibmFgGMIjy+IyyOWKRHIsXDB9H5cPWs0M47v87XX966/fMw9z6zmxGeu5I8jbExNTxj5pw0BHmuOU/f8fNa9tZLMkmxaK5vpP2Ugp902k7A/JHvLrVYDX62p5NNNdRRZ9PsadvJ3MSYrrQa0jU4qHvyUm+/8AX+745SOT37ljHHci+ugspEiayLab5/7GKFl3UbhNi+p7NsjI+2dcUwYukDmiBv/2br+oZu665re9+/H+d2vru7yPdGLvWpjA6s3N7FyXR2btjaxo6oNryOQ6IITxm7SJphnxYNo0mLSa1Ho1ehUKulKCtdeG1cQklc4jloU1wim1iSVsoj0i/5o0WctddzEmly0U4aSr4WOmXDlDRpy040MLMlg9NBcOVv362UjP8dMYZ51nxtY5gjy0boG3t7YxGdCjMEdlEuLQrHOFzGHQJhoKII2FMblCuBwB7CKJYkIHHqD+ASJg/g9RkJHPdfM5ME5nDKphLNOHihLWb8JT85exlW/m8uwRy/njmkl/CQrcYZrW4I8YIemj1bz1aPzsBZk4Gpykts/jzPvOR+NVoOvzU1aholtFXbeWlpGgV4rPaeu+sXFDC908rThMOX//oxpx5ew8M2fd7wv6BxPe6OMr5aVUWDWyEHZteojXO/sV237QOFNshcfXlroW8IxY+gC2sJTqkN1HxcfwEcPCKfe9hS/uWQmPxi8b792Z4QjMarqneyobKOmwUl1jYPqOifNbV5a23y0OQO0Of0Eg1F8oqddPJciCr+37E9yjS3mN61aiV6jJD3NQJpJh82qJz3dQFaWkaI8KwW5VnKzzZQUWCkuSCPdmmCEXbmhkS9XVbNoZQ32dh9ef0QWAQlXX3RjVe10QLNXNJxLbXDRqCFjAcJ4xSbOT/yMJI1HdG+ZdSjMGvLSTBRkmyjMMtGnKI2Rg/MYOzSXEQMPTPT2v88t5+rr3qLgX5dw2xlDuD5XIZcIW9uD3N8Qp2llOUv/+i4as56Q0485L43z/vxjDFkm3I0u2fRT1+Tk9UXbUCsUZOhUXZa6CiOP6TVY1Ep2PLuEDGWMiiW/Jt2825u5dnETj32wnhy1QlYcusrX4Jj9f9316Aj8RuhaducOjySOKUPPOu6u/La1z9bFgtXdc94KFfzkn5wwcQKzRuZx+vBcetsMB/CPuyHW4MK1dfuDhAIR3L6QHBjc7qCsW1clc1WiXVWjVmEx61AqFVhNGtnGajJqMRo030j7JPDka2u56k/zYFM99MmUlXMluRZZQirgEqy3vhBakUrWqHF6g7LTS6fXkGbUSuokQW1sMWnkwCIGjuwMI2kWHdk2E7lZRjnoZNuMh8Qzd++Dn/P7Oz8m//5Z/Prskfw6Dxng29YW5IHGOG1lDXz5pzlEoqIgJooh3ci5fzwfW69M2usdWNONMpX21oKtuCNR8g2avYx8dxpNFB+J2bz6ndWwoZaNS3/N0NLdg/Xj2z1c87/VmAIBMs06PLXbaHvy2sSg1z0QrBQzkrHNYwLHlKELpA2+4jLnlmdmd1s5sUoHFz8I5mLINHJ5qY3Th+YwbUAmORbdAezgyKK63snlv3uf+S98QfFJw7n1quOYdlyxnOUztN98fnHZvnnkz/Giq1/l5We/ovjfl3DdWSO4MVeBXqVgS1uQvzfEcNS2suLeOThFjCEWw5BmkjTNtr7ZOOraJVmHw+HjvYVbqPeH6WXSdmnkJOmsNRYDjYu2EXhvPe/NvZIzZgzoeH9+S5gZz62GxjZ6pRnxNZTT8sS13VUUIyBE60QV774KGD0Yx5yhCxgKT33TX/fRud22Q7WB/OufpMGcnwx2xcnIMfLj0kxO6p/JpNJMitMPXsnlcLBxRzMPzf6KJx9dCjlGHvzDycyaOZhsqwm704MjqXPeOzsNi0F75E7kG7B+m53zLn+Jsg1NDH34Un52yiBp5KJpZ1WTn/80g9fuZOV9c7DXJUQdzTYzM+86l6y+OTjq2qSRtyWNvMkX6iLCzh6ikqI5ybOuCsfzy3joqVnccNmEjhPcEYDxL23EublatrGGWutpfPRKiBwY4+4BQsjkvnqkr21345g0dAGleXBtzLOlsNt2qLWSffUjmLKLZdCsNhAVZWrS6HWZRs7plcaUPhmM7p3G4HwLGYZDJqz9WrQ6/Mz/cicvvLuJ955fJSWKr//tCfzmyokUZ1upkxrgIRnhR3LaxYhG4/TJTcNq/Ha9j38/vYxfi9LWkhymPjCLSycUc0VO4rw+qfYw26lE0exi6f1v01zdIr2LzOJMTr/jLDKKbTganGSkGWlqcfH+4m20+COdjLyrgKtCRthjZU3UPrGIm+/6IX+7Y3fRpEhinzungkVLtpMnAqWOOhofvx5CXWjMHTqeAX5xpK7pkcQxa+goNCYUhjZiru6bztRGsq56GH1e3z0i5bWi2k1EwkXE3aClf6aeKQVWKdk0ON/MgFwLvWyGQ7qYjc0eSQH9yZKdzFlQTuuScsnA8tPrJ3HTL45j9IBcGpxe2p0BubanU2+xWHdHRL4+Fqc0L0NKDx1pCDWXq295h/mvrUR1yTRmXnMyPxucwcxk5+nTm518FNWir2th8d/eo7W6VcYqioYXc9pvz8SUaZbRdjGT19W18+6XO/CFo9I4u57Jk68tBlS1bVQ9+jkX/uK4PfTXBV3Uz+bX87+PN5GjUYCjFvsT10GkCy26Q4eolT1eUAAe8Yt8BHDsGrqwy/QRx0ccGxezR4X6YUKpwXblIxgL+3faz+4Ujy8Wp00Il4u8sjB8vQqVWce0TD2lNiODck3kpxsoyjRSaDPK4JdNo+xQynC6Aqzf3syajQ0sXVPHwnV1NGyxJ5pcCjO48Ccj+Pms0UwdX4zXF8be6pG0xWKtvYtssvNPARF0UymVDO2V1W2XYW+0ReG/Ty7htt9/AHotw249g+mnDOOXxTqGGhXUu0M8tt3LVr0B/bYaPv3nXBz1icqzgTOG8IPrT5GsMYF2DyaLgR0VTby1vBw9CYrp/Rm51u6k4pH5zJg5lE9fvGSPs7tlRRt/f3cd1kgYfXsl9qdugGi3siyLdce4YyWV1hWOaUNHUgkPvSni2tS9aQ6FkvRf/B3LwOM6HsBopyIYVbLALaZQEojHaRUpKzHrCyHCJHd4gn02Rm/i5CniZMei6H1BNlYIOuU2wcWcyJWLCpuSDC46tT8Xnz2MEyb2JhaJUWd3y5la1OgrOzEZ7P0aKcYQl/TNWVYTTREljkCMAlOCXvpQIXrNm5RKqsLw4UfbeeiBD/GuqMJ64UQmXTqV80bmcUW2Qj5A71W4eNUeQZVmwr1wAwufmI+7xYPGpOW4H09iwk+Pl0o1MV8Qg0HL2k21fLiuBotWRYZOI2v0kxc++XN3hF10yalaPVT8Zz7jp/Zh6dtX7FFu+9fNbn771jp0bg/mhg20vnhbdxFI7II4uTOAY4PT62twzBu6gNLQe3bMX3VZd+/XNO1qbONmEhMFMKqEGF8k6dLLXG400b1GOIIyHJOFKKLgJSZSbLIAJYTfEyAkilB2UU2L1JUwcKWSvqWZnD69L2efMpDjxhbJHHeD3SOFBURabm+D3ns2jyXTdkXpOqrbA9z8zg58RXkU5FjRRyOMztBxTh8TvS0HtrrxhWNsaA1QFoRalY6vNjXw1lML4YO16Mb2ZuhlJ3DajEFcWqhhgBa2O8I8t9XBJqWWXgY1G15ZwvLXlhPyBMnoncX0K6YzeMZQXK0eNEma66Urd/JleRN5othFo9yLRKJTw464vlYD+lYPZY8uYNi4IpbO+QVm4+7lyePlXq55awPYHZi3zsPz/hFJa98GHLg8bA/Fd8LQkUv2nAXxsP2EA/joQUGTcwJZ/c6WNe0J4xIzbFwaWTwWQxFL1GKKZg1hqPFkPku40kLWyBuJSqHCRDeaivwCKxNHFjB9Um+mT+rFgD6Z+ENh7C0+okkDZy/XfO/XJH8XNFZCEqrJG+bsFzaxbWsLM2YMZPywIppcfqr8EanCctPgNKYVfL3Y4tb2EMsa/KxzR7CbjHjbPOx4ZwXlb6+UNf4lP57IzJljmNnHyAh1XApDzNnp5ZMGH9kFGVi8PhY8Oo9N8zbKrr3Syf054aqTyC7NxdPklFr1Dpefz5eXs7XJSYFFnygZ3qd+vVPlm1mP0eGh7IlFDBuex9J3rtzDyJ+vDnDZO5ugqhHtkue7s6y1M47Z4Nve+M4YuoibK5SGdfGY/+DF1/YHVTEUXwIqw+5LJn5IITZFouhaPLRitlYkZ23BT6fXUGQz0DvfypB+NlmTPnpILoNLs2TgTETZXe6EqENndC5X2btaoPNMnmXRyoqNWc9t5IudTowmFccPKmDsiGJaRHmroHoSq4p4nItKzJzeyyRFIwQRZbM/wub2ECvsAVY7QkRNBjLCYaoXbWb7/M0yoj/0tJFM+9EoJvQyUxiLEgqEWNQYYH5TIl01pE8m7RVNvH/fe9R/tZP0flmMPnc8Y88/TnpAQYcXg0lHZXULn62skMdMkGLu+jZds+wqrUbUzW4qnlhIn8HZrH7/qo7KQIGXaoL89IOtsGE7infvJV67rttveVIF9bSeIql0uPguGbpAGgrNFuLhrluqDgMqjZkpZ/8BW24/uRMxG5lEdZtKKUssRWWbVqdGn6x2ExVnOTYDOdlm8nLNZKcbUakU0rBdolklGutYfwtZ4qjoUIvveUM6r8cVSddXmVyT24waKQJ5zWvbeHm9nV7ZBuo8AU4Z2YvsvvkcZ1IwKkvH7DIXrlAMfyxOsVFNgV4tpaca/FFqg1FZRiokmTw1rexcXYm/3UvR2BL6TR5IkU1PdjCIIhxhizPMOmcIk0pBllqBJcdK45Z6Xv3NSwTsHoacPYpx50+kcGQx/jav7J8XA9i6DbV8urleHidjj2q3vdh65JdTErboMTQ4qHhqMSPGFrHojcvltdyFV2qDXP9JGa0L5sOrd0KoW1pN94aQzBGsls4jsfOjge+aoQsUgmotRLs9BC0M86577+OKa66TF06sMYUii2ipVIlZPBaXxhjf1V0VjeMNhAkGI4RC0Q4XXKTJhCacWaeSr13BKKFwjEA42rE233stvsvQxQCTZdZi0qq49d0yHltWT0GmXgYHmwJRzpvUD1+amTsHWRibrWe7I8Sda9pIVysJxmJSHkqrUGBQKxKKr0oF0XAUZ3UbunSD1B4Xsayg04siFpNaaELCKE2jxCI+K9ipLQZaq1p4/ZaXsGZZmXjxZPpPGYRCq8Lf5pH0Ty3tXpatqWRDvYNskxaDWtWJOKIzEpROYlkTNunQVtipenYJIyeX8MVbe67JX6gJcvOnZdif/zcseOpINY0JGaXpQvPxSOz8aOG7aOgCvUGxBuIZB/DZg8bkqSfw94cfJzMnB0U8EZHfNdvuwi4KOrUqQbggmliEcYvPecMxGpxBdrb4Wdfg5oPt7Vx/XAEzh2dj9+zpKXbkzBMTHoXpetoDEW5/t4wX1jZjs+kxq4RGQYRss45xx/WnyKThz+NsHdLNj2x0ML/RT4FhXzn8eHLHIhoejUSJBCOd3uuaEFwIHJbtaJRqpuNOHIw23YivxSOPJ7r2tpc3sWRdDc3BCEWy0aRrwgiSnpFCp0GtVRPdWEPtSyuYNnMIc1/4qZTR2oVnK/3c8/5KKu+/AeqOiKuOpA2GKYLJ7Egd4Gihx3LGHSaqIH4cKFZAPK27d/7l4oWcfPw4Hn7kEc45J1G4IVM+yeX6LsMXmTNnIEKzN0yzO0idI0RVu59tdj/rW31SyRRfBJxBvKNz0aoTrvwuIUZI7EPwG2aZtLLZZHFFO3fPq2J5jUuu/5VJ23UEI0wckIdfq+GkPH2HkQtkaBVynd45qCcGqLgi4aVEojEZvFMk5OdknboMCioSn4sqdgf/2kIx3C4Pxw3OJ3dqKWurnejsLkwmPQ6Hl9Vf1fBVVSsWnZpeFv1e9E+dVXIS7nrMpEcZjRL4YhtN763nR5dN4P0nZ3WcezgOj5X7+MODj+N64vburFnfG03ASd9FI+c7bOgCOyB+fFIDq9tndq/Xy88vv5wHn3iOK2+7D3NatjQEMVu7QhGcgSgOT5hGb4gaT5gNgjpKFNmIhbgwTp2aAoOa+kicS6f34oIxuTS5Q4k1uYjriW4znUqyzArJp9U1bt5cZ+ex9c3S+vtmGhIpPhRyNi+y6skotJGrVXBi4Z4R9vZQXHa1qZLGTXIp4AzHaAnFyNIq5dpdeAxCJbbZH8WV7PTaNeCIz6erlIxI1zKjyMikXAMvbncRjCswa9Vs2lbPks11tPlCFJh1e0XV94R01T7BK7IAAAqdSURBVMX7FgN6h4fWz7fiXFrBlbecyH/vPaPTece4f0kZ/7zhCiKbjqiUmRAQ+EHimflu4rvquneG4PNaAOQd+L8cJARBwwm/hNE/EiLje3Krq6X/jlmlxKpiDx75Wn+EMek6Pr1mNBlGDS1uIUOUKEIROe3a9gDr6zwsKG/nhXKH1G43W3WyzDPUiQlW8JSfM7Ef8Vwb1/bSc3KxqeMYIsL+hxWt1PkipGmVcsZ2h2LUBmMMtGg4OV/PMJueQrNarvP9kTiNvqiMkLcFo1LoUAQLsw1q+qdpyNQnXIj/7fTyqT1ExOFm/ZZ61tU75CyeoVPvFXBjH8II4aoLOi5jdQvl8zYSr2zn7vvP4K7rp3Z8bkt7gF8+8DCL/nZbd7aXdoVqQBTNbzuSBzna+D4YuoAgTP88+fOIQWHJx3L2TVj7j+siN7xvIErU0I+xaLh+UqFkJxUutC8YpdKRcO+XN3mpaAvKCjuzWYtNo+o0S8YlP12108+UvtkMHNOXNKI8MCFLji27UO4Mc/PKFtLVChmIawnH6KVX86MiIz8sNmHVHnjvuVjPL2wK8UFjkHUNLgJ1LSytaiEejpFv0iS6y+Jdf2fppov3zXo0Ql56cw0Vn26RRJvPPHwel5+zW6vjH3Pm8fubbiBQdcRtrzw5k1ce6QMdbXxfDF1AkEt+DAw70gdS9R5Dxo+uQ5/X52uDUOJ3nVJJbThGULj1u8geIklRd6VcLNNLChDE9xKYiEujEsuC3mkGTp8+mPJAjNsGWZictydxxk5nhN+takanVFBi0jDSppXFM9ldBOa+DqICbrXYnBHWN7hxNrZRW9NCrTtItlEnI/i7K9z2NvJ4Qkpaq5aUzPr6dmLrqqj5sgLLkDw+eOR8WdcvsHDleq7+v1vYtviTbrwbX4uNSb63+m/jYEcb3ydDR+bZE9pYhyXLfKBQDz2JjJN+hi67aK//2NMYxCwoauY1CPbXxIDgCcekEKB4X6yNdToVOkXCoNRJoQcRJDtv+iAiBgO9VTH+OKHrjGKjN5LoIDMfeHebOP6q1hBrnRHWtoeoaPESbnbQ1NBGhcNPpk6DqYPqaV8XfVfaLKxUoDDpiAcj6LbW41xfQ/tWO8fPHM67j56LzWZiy/YdXPPbO1n49ivdfAe+FkJV5fzvUp58f/i+GbqAeNofB35+AJ/tFqgHT8c27UK0hQM67W5vVz6eMG5B3KhQkm/VkZtuoiDHgi3dxIr11dS0eqUaa1goxfpCnDO+L/375lLZ5uUfE7IOypC/Do5AlC9aQyxtjbCuyU17u5dIq5vaZqeMBRjVKqlY4w9HydZpMGiVXfK6CVc9KrTZ1CpUta1ottRRsblB8sXf9Otp/PP3P2T16tXcfM/9fP7Ot6pLKMpaf5nsbv3e4Lscdf86hJP1y+VJidsjLh0d2bIA+5YFKAuHY5l+MWkDEqwoIkrfHolKoxEKq8UWHcOKbeTlWLFlmMjMMGE26di8rQG7KyiFDMSA0CwUXPvkMLA0j2Z3gCEZejJMGuoDMeq9EamEIkpkRfTdchBr8A+rPXxQH2Rtiw9PfStu0Roq6J9EO66Qe9apsek1ZJj1lBTZaGnzsr22FYNW1UkxNsHpJvTR4w4Pqi0NRHbaqSlrwdInk9eeOJVYtIoxU05gzZJFR/Cq7wMxHP0e+Mu3edCegu/jjN4ZZwIvAtZv9ag6G8oJZ5E+4TRy8grJSzeSlW0hJ8OMSaSmNCrUahUut591G2tZsKMJm9BWl91ecWp9Yc4Y2Yuhgwtwu/0y5y0aYtoCEfwisa5UUu0LMzPfwO/HZO4RnOsKwq2/b00bdzYEGePxslpoqrkDYNJLvbdJNiNWsx6zRZBKGsjPSycYCDNv4Va2tXpkCa00cKHJZtJJHTsh26TY0UR7owOPM8DZMwoYUNzIC/+bTUN19bd6uQV3JvBT0VH7bR+4p+D7bugCg5Lr9iMepOsKhcefwugzL6T/tFNQaxJGHgxFqKlrZ/U2oQnupcCgQ90R8EqkqNRKJVajVgpAiLr5hlBMao8FwzGmDMknu3cOhmiUf03Olhxu3wSx3/cq3ZS5o9iFWEQgTI5VT75FS6ZJw4LmsBSdsApuOiWU72xm4cqd2EXO3KglKHL0Rh1xkYqrbiGyvYFYi5vmNifKcDn51kqqti7rVknng4AIul0gmvSOxsF7ClKGnoCoMPmPYCQ6amegVNFn+hnYxv4Af8YgNjuishIu3yDy0nuKGAi7FUU0rnBUFtaIGV2ow7T6gvL9c6cNxGm1cFt/EzOKTPs58DdjSVOAZ8o9ZJq0eFx+Nmxt4KsKu/QSckSQTa+VMQNFg4P4jgaitXbcjRvxN68iHt5+tEVMnkuKHx6T9E/diZSh7wnBUfTIt+7KdwFl4QgMgydh6j8edV7fToU2u4N4opXUFY7JNb5RpaRftpmBAwppNem5JE/L5YPSD/n4G9uCfNYY4it3BKtoX61pYVVZE00ipWbWojMbpCegaGgntGYV3i3LCbSsJxbuESzIwlW/QbSt94Bz6RFIGfq+6JN8QKb0mDNSqlAUj0TZeziKwsHEs/oSNVpJ16rJtejJzzSTlmUlbDWRpVVxbr6Ws/pYDvowVe4QW9rDbPTE2OCJ0O70E2l1sq2imYp2nxR+MKpD+Gq2E1y3nNC2VcQc27vomj+q+EIIqIoSgp50UkcbKUPvGiKMfBNwj6CR74knqNRZMPcfTtqgkWT07ktxcW/Gl5Ywa/xABuUcmEMi8uvVnjDl7gjV/hjVoTj1vjC+lnZaN2+mctt2WuuqUXnsxFsqiNVshbD3iH+3Q4Rgw7grKZN0zCiofFtIGfo3QyS+nwSm9eST3BtCEjo7O5ucnByysrKw2WwEo3Fiai0RjR5vOE6bx4vXHyCIgoCjDb+jlXBLEzGvQ5bcHmMQHS9XiCK+Y+3EU+g5UCSLa5qTC+TU1nO25mRNRGrCSqHbkJ6MzIdThn7Ut3DyXhwRYpEUUhAYkuT4/r4b29HaPkzegxRS+FYgepi/Shnet7Z9lew2SyGFbx2KZBntmpQhHrFtbfIap9bhKRx1iIdQyDgvTxlmt23Lk9c0ZeAp9EgInro3k7nc77uxHuwmrtmcJKd6CikcEyhNFm+k0nL735qT16o09WincKxCEJvPSrKaxFJG3bHFktfkJ8lrlEIK3xkIcsrbgfXfYwPfkLwGfVKPdQrfBwxMSvIu/46v56PJ73hb8juncBSQimj2DOQmlTsF9fCMI8pB/+2gKemWf5oscGk6xr/PMY+UofdMiGaaSckI/pQkC05PvVfxJHvLkmSL6NJUc0nPQ8rQjw0ImurhSbqrkcnXwvgzv+Wzb00qmoh19rrkzw3fJ9rkYxUpQz+2YUkG+EqSwS0hUpGVHAAyk691nZo/tMAubilBr7RLsbA9+bolacytydf1SQKHyuTm/r5f8BRSSCGFFFJIIYUUUkghhRRSSCGFFFJIIYUUUkghhRRSSCGFFFJIIYUUUkghhRRSSCGFFFJIIYUUUkghhRRSSCGFFFJIIYUUUkghhRRSSCGFFFJIIYUUUkghhRRSSCGFFFJIIYUUUkghhRRSSCGFFFJIIYUUUkghhRRSSCGFFFJIIYUUjg6A/wcf4E+azv7HUQAAAABJRU5ErkJggg==;rounded=0;" parent="51" vertex="1">
                    <mxGeometry x="220.9974418604651" y="6.41" width="121.18863049095607" height="121.18863049095607" as="geometry"/>
                </mxCell>
                <mxCell id="56" value="COINBASE API" style="ellipse;shape=cloud;whiteSpace=wrap;html=1;shadow=1;fontSize=22;rounded=0;fillColor=#f0a30a;strokeColor=#000000;fontColor=#000000;strokeWidth=3;" parent="1" vertex="1">
                    <mxGeometry x="381" y="83" width="255.12" height="90" as="geometry"/>
                </mxCell>
                <mxCell id="59" style="edgeStyle=none;html=1;exitX=0.5;exitY=1;exitDx=0;exitDy=0;entryX=0.25;entryY=0.25;entryDx=0;entryDy=0;rounded=0;strokeColor=#000000;strokeWidth=4;endArrow=block;endFill=1;entryPerimeter=0;" parent="1" source="18" target="55" edge="1">
                    <mxGeometry relative="1" as="geometry">
                        <mxPoint x="846.9972000000001" y="407.9999999999998" as="sourcePoint"/>
                        <mxPoint x="852.91" y="506" as="targetPoint"/>
                    </mxGeometry>
                </mxCell>
                <mxCell id="63" style="edgeStyle=none;html=1;entryX=0.5;entryY=1;entryDx=0;entryDy=0;rounded=0;strokeColor=#000000;strokeWidth=4;endArrow=block;endFill=1;exitX=0.5;exitY=0;exitDx=0;exitDy=0;" parent="1" source="20" target="13" edge="1">
                    <mxGeometry relative="1" as="geometry">
                        <mxPoint x="609.5" y="606" as="sourcePoint"/>
                        <mxPoint x="907.2799999999997" y="673.5" as="targetPoint"/>
                    </mxGeometry>
                </mxCell>
                <mxCell id="65" style="edgeStyle=none;html=1;exitX=1;exitY=1;exitDx=0;exitDy=0;rounded=0;strokeColor=#000000;strokeWidth=4;endArrow=block;endFill=1;entryX=0;entryY=0.5;entryDx=0;entryDy=0;" parent="1" source="8" target="13" edge="1">
                    <mxGeometry relative="1" as="geometry">
                        <mxPoint x="863.5" y="572" as="sourcePoint"/>
                        <mxPoint x="490" y="563" as="targetPoint"/>
                    </mxGeometry>
                </mxCell>
                <mxCell id="66" style="edgeStyle=none;html=1;rounded=0;strokeColor=#000000;strokeWidth=4;endArrow=block;endFill=1;entryX=0;entryY=0;entryDx=0;entryDy=0;exitX=1;exitY=0.7;exitDx=0;exitDy=0;" parent="1" target="8" edge="1">
                    <mxGeometry relative="1" as="geometry">
                        <mxPoint x="311.5" y="382.4000000000001" as="sourcePoint"/>
                        <mxPoint x="540.5" y="540.5" as="targetPoint"/>
                    </mxGeometry>
                </mxCell>
                <mxCell id="79" style="edgeStyle=none;html=1;rounded=0;strokeColor=#000000;strokeWidth=4;endArrow=block;endFill=1;entryX=0;entryY=0.5;entryDx=0;entryDy=0;exitX=1;exitY=0.5;exitDx=0;exitDy=0;" parent="1" source="2" target="6" edge="1">
                    <mxGeometry relative="1" as="geometry">
                        <mxPoint x="326.5" y="410.3313432835821" as="sourcePoint"/>
                        <mxPoint x="369.9999999999999" y="455" as="targetPoint"/>
                    </mxGeometry>
                </mxCell>
                <mxCell id="80" style="edgeStyle=none;html=1;rounded=0;strokeColor=#000000;strokeWidth=4;endArrow=block;endFill=1;exitX=1;exitY=1;exitDx=0;exitDy=0;entryX=0;entryY=0;entryDx=0;entryDy=0;" parent="1" target="18" edge="1">
                    <mxGeometry relative="1" as="geometry">
                        <mxPoint x="721.0561561561553" y="245.5115337423315" as="sourcePoint"/>
                        <mxPoint x="517.625" y="324" as="targetPoint"/>
                    </mxGeometry>
                </mxCell>
                <mxCell id="72" value="" style="rounded=0;whiteSpace=wrap;html=1;labelBackgroundColor=none;fontFamily=Helvetica;fontSize=15;strokeColor=#FF0000;strokeWidth=3;fillColor=none;" parent="1" vertex="1">
                    <mxGeometry x="384" y="192" width="313" height="178" as="geometry"/>
                </mxCell>
                <mxCell id="10" value="&lt;b&gt;&lt;font style=&quot;font-size: 17px&quot;&gt;CB&lt;/font&gt;&lt;/b&gt;" style="whiteSpace=wrap;html=1;rounded=0;" parent="1" vertex="1">
                    <mxGeometry x="359.4894894894895" y="206.1963190184049" width="164.05330330330332" height="39.31288343558282" as="geometry"/>
                </mxCell>
                <mxCell id="28" value="&lt;b&gt;&lt;font style=&quot;font-size: 17px&quot;&gt;MyCoinbase&lt;/font&gt;&lt;/b&gt;" style="whiteSpace=wrap;html=1;rounded=0;" parent="1" vertex="1">
                    <mxGeometry x="569.0028528528528" y="206.19865030674845" width="164.05330330330332" height="39.31288343558282" as="geometry"/>
                </mxCell>
                <mxCell id="30" value="&lt;b&gt;&lt;font style=&quot;font-size: 17px&quot;&gt;Portfolio&lt;/font&gt;&lt;/b&gt;" style="whiteSpace=wrap;html=1;rounded=0;" parent="1" vertex="1">
                    <mxGeometry x="485.9993993993994" y="284.00337423312885" width="164.05330330330332" height="39.31288343558282" as="geometry"/>
                </mxCell>
                <mxCell id="77" style="edgeStyle=none;html=1;rounded=0;strokeColor=#000000;strokeWidth=4;endArrow=block;endFill=1;exitX=1;exitY=0.5;exitDx=0;exitDy=0;entryX=0;entryY=0.5;entryDx=0;entryDy=0;" parent="1" source="10" target="28" edge="1">
                    <mxGeometry relative="1" as="geometry">
                        <mxPoint x="346.59361861861856" y="433.9926380368099" as="sourcePoint"/>
                        <mxPoint x="475.3573573573574" y="312.1226993865031" as="targetPoint"/>
                    </mxGeometry>
                </mxCell>
                <mxCell id="81" style="edgeStyle=none;html=1;rounded=0;strokeColor=#000000;strokeWidth=4;endArrow=block;endFill=1;exitX=0.31;exitY=0.8;exitDx=0;exitDy=0;entryX=0.5;entryY=0;entryDx=0;entryDy=0;exitPerimeter=0;" parent="1" source="56" target="10" edge="1">
                    <mxGeometry relative="1" as="geometry">
                        <mxPoint x="450.51614114114113" y="254.50920245398765" as="sourcePoint"/>
                        <mxPoint x="461.8661786786786" y="318.9386503067485" as="targetPoint"/>
                    </mxGeometry>
                </mxCell>
                <mxCell id="82" style="edgeStyle=none;html=1;rounded=0;strokeColor=#000000;strokeWidth=4;endArrow=block;endFill=1;exitX=1;exitY=0.5;exitDx=0;exitDy=0;entryX=0;entryY=1;entryDx=0;entryDy=0;" edge="1" parent="1" target="30">
                    <mxGeometry relative="1" as="geometry">
                        <mxPoint x="311.5" y="360" as="sourcePoint"/>
                        <mxPoint x="573.0028528528528" y="270.3386503067484" as="targetPoint"/>
                    </mxGeometry>
                </mxCell>
                <mxCell id="84" style="edgeStyle=none;html=1;rounded=0;strokeColor=#000000;strokeWidth=4;endArrow=block;endFill=1;exitX=0.25;exitY=1;exitDx=0;exitDy=0;entryX=0.75;entryY=0;entryDx=0;entryDy=0;" edge="1" parent="1" source="28" target="30">
                    <mxGeometry relative="1" as="geometry">
                        <mxPoint x="532.5427927927926" y="254.50920245398777" as="sourcePoint"/>
                        <mxPoint x="573.0028528528528" y="270.3386503067484" as="targetPoint"/>
                    </mxGeometry>
                </mxCell>
                <mxCell id="85" style="edgeStyle=none;html=1;rounded=0;strokeColor=#808080;strokeWidth=4;endArrow=block;endFill=1;entryX=0.5;entryY=1;entryDx=0;entryDy=0;dashed=1;" edge="1" parent="1" source="25" target="2">
                    <mxGeometry relative="1" as="geometry">
                        <mxPoint x="742.0561561561562" y="254.51153374233127" as="sourcePoint"/>
                        <mxPoint x="800" y="366" as="targetPoint"/>
                    </mxGeometry>
                </mxCell>
                <mxCell id="105" value="" style="group" vertex="1" connectable="0" parent="1">
                    <mxGeometry x="704" y="483" width="198" height="102" as="geometry"/>
                </mxCell>
                <mxCell id="95" value="" style="group" vertex="1" connectable="0" parent="105">
                    <mxGeometry x="14.559999999999945" width="40.94" height="30" as="geometry"/>
                </mxCell>
                <mxCell id="90" value="" style="html=1;verticalLabelPosition=bottom;align=center;labelBackgroundColor=#ffffff;verticalAlign=top;strokeWidth=1;strokeColor=#FFFFFF;shadow=0;dashed=0;shape=mxgraph.ios7.icons.monitor;fontColor=#333333;fillColor=#000000;" vertex="1" parent="95">
                    <mxGeometry width="40.93999999999993" height="30" as="geometry"/>
                </mxCell>
                <mxCell id="93" value="" style="html=1;verticalLabelPosition=bottom;align=center;labelBackgroundColor=#ffffff;verticalAlign=top;strokeWidth=1;strokeColor=#FFFFFF;shadow=0;dashed=0;shape=mxgraph.ios7.icons.camera;fontColor=#333333;fillColor=#000000;" vertex="1" parent="95">
                    <mxGeometry x="7.419908925318783" y="6.000000000000001" width="26.100182149362432" height="13.200000000000001" as="geometry"/>
                </mxCell>
                <mxCell id="96" value="&lt;ul style=&quot;color: rgb(0 , 0 , 0) ; font-style: normal ; font-weight: 400 ; letter-spacing: normal ; text-align: left ; text-indent: 0px ; text-transform: none ; word-spacing: 0px ; font-family: &amp;#34;helvetica&amp;#34; ; font-size: 15px&quot;&gt;&lt;li style=&quot;padding: 3px 0px&quot;&gt;&amp;nbsp;visualization thru complex plots&lt;/li&gt;&lt;/ul&gt;" style="text;whiteSpace=wrap;html=1;fontSize=21;fontFamily=Helvetica;fontColor=#000000;" vertex="1" parent="105">
                    <mxGeometry y="12" width="198" height="90" as="geometry"/>
                </mxCell>
                <mxCell id="55" value="&lt;font face=&quot;helvetica&quot;&gt;&lt;span style=&quot;font-size: 21px&quot;&gt;&lt;b&gt;TELEGRAM API&lt;/b&gt;&lt;/span&gt;&lt;/font&gt;" style="ellipse;shape=cloud;whiteSpace=wrap;html=1;shadow=1;fontSize=22;rounded=0;fillColor=#f0a30a;strokeColor=#000000;fontColor=#000000;strokeWidth=3;align=center;" parent="1" vertex="1">
                    <mxGeometry x="872" y="630" width="270" height="107" as="geometry"/>
                </mxCell>
                <mxCell id="104" value="" style="group" vertex="1" connectable="0" parent="1">
                    <mxGeometry x="923" y="505" width="198" height="110" as="geometry"/>
                </mxCell>
                <mxCell id="88" value="" style="group;strokeColor=none;strokeWidth=1;" vertex="1" connectable="0" parent="104">
                    <mxGeometry x="23" width="25" height="41" as="geometry"/>
                </mxCell>
                <mxCell id="86" value="" style="html=1;verticalLabelPosition=bottom;labelBackgroundColor=#ffffff;verticalAlign=top;shadow=0;dashed=0;strokeWidth=1;shape=mxgraph.ios7.misc.iphone;strokeColor=#FFFFFF;fillColor=#000000;" vertex="1" parent="88">
                    <mxGeometry width="25" height="41" as="geometry"/>
                </mxCell>
                <mxCell id="87" value="" style="html=1;verticalLabelPosition=bottom;align=center;labelBackgroundColor=#ffffff;verticalAlign=top;strokeWidth=1;strokeColor=#FFFFFF;shadow=0;dashed=0;shape=mxgraph.ios7.icons.mail;fontColor=#333333;fillColor=#000000;" vertex="1" parent="88">
                    <mxGeometry x="5.972222222222222" y="17.296875" width="13.055555555555557" height="6.406250000000001" as="geometry"/>
                </mxCell>
                <mxCell id="68" value="&lt;ul style=&quot;color: rgb(0 , 0 , 0) ; font-style: normal ; font-weight: 400 ; letter-spacing: normal ; text-align: left ; text-indent: 0px ; text-transform: none ; word-spacing: 0px ; font-family: &amp;#34;helvetica&amp;#34; ; font-size: 15px&quot;&gt;&lt;li style=&quot;padding: 3px 0px&quot;&gt;&lt;font style=&quot;font-size: 15px&quot;&gt;send messages&lt;/font&gt;&lt;/li&gt;&lt;li style=&quot;padding: 3px 0px&quot;&gt;&lt;font style=&quot;font-size: 15px&quot;&gt;send plots&lt;/font&gt;&lt;/li&gt;&lt;/ul&gt;" style="text;whiteSpace=wrap;html=1;fontSize=21;fontFamily=Helvetica;fontColor=#000000;" parent="104" vertex="1">
                    <mxGeometry y="20" width="198" height="90" as="geometry"/>
                </mxCell>
                <mxCell id="108" style="edgeStyle=none;html=1;rounded=0;strokeColor=#808080;strokeWidth=4;endArrow=block;endFill=1;exitX=1;exitY=0;exitDx=0;exitDy=0;entryX=0.25;entryY=1;entryDx=0;entryDy=0;dashed=1;" edge="1" parent="1" source="25" target="8">
                    <mxGeometry relative="1" as="geometry">
                        <mxPoint x="96" y="573" as="sourcePoint"/>
                        <mxPoint x="130" y="409" as="targetPoint"/>
                    </mxGeometry>
                </mxCell>
                <mxCell id="109" style="edgeStyle=none;html=1;rounded=0;strokeColor=#808080;strokeWidth=4;endArrow=block;endFill=1;entryX=0.5;entryY=1;entryDx=0;entryDy=0;dashed=1;exitX=0.75;exitY=0;exitDx=0;exitDy=0;" edge="1" parent="1" source="25" target="10">
                    <mxGeometry relative="1" as="geometry">
                        <mxPoint x="333" y="573" as="sourcePoint"/>
                        <mxPoint x="376" y="514" as="targetPoint"/>
                    </mxGeometry>
                </mxCell>
                <mxCell id="110" style="edgeStyle=none;html=1;rounded=0;strokeColor=#808080;strokeWidth=4;endArrow=block;endFill=1;entryX=0.002;entryY=0.673;entryDx=0;entryDy=0;dashed=1;exitX=1;exitY=0.25;exitDx=0;exitDy=0;entryPerimeter=0;" edge="1" parent="1" source="25" target="73">
                    <mxGeometry relative="1" as="geometry">
                        <mxPoint x="229.25" y="605" as="sourcePoint"/>
                        <mxPoint x="450.5161411411409" y="254.50920245398765" as="targetPoint"/>
                    </mxGeometry>
                </mxCell>
                <mxCell id="122" value="" style="edgeStyle=none;html=1;fontSize=25;fontColor=#000000;endArrow=block;endFill=1;strokeColor=#000000;strokeWidth=4;exitX=1;exitY=0;exitDx=0;exitDy=0;" edge="1" parent="1" source="8" target="73">
                    <mxGeometry relative="1" as="geometry">
                        <mxPoint x="650.9626168224299" y="558" as="sourcePoint"/>
                        <mxPoint x="788" y="429" as="targetPoint"/>
                    </mxGeometry>
                </mxCell>
                <mxCell id="123" value="" style="edgeStyle=none;html=1;fontSize=25;fontColor=#000000;endArrow=block;endFill=1;strokeColor=#000000;strokeWidth=4;exitX=1;exitY=1;exitDx=0;exitDy=0;entryX=0;entryY=0.25;entryDx=0;entryDy=0;" edge="1" parent="1" source="30" target="18">
                    <mxGeometry relative="1" as="geometry">
                        <mxPoint x="462" y="470" as="sourcePoint"/>
                        <mxPoint x="787" y="360" as="targetPoint"/>
                    </mxGeometry>
                </mxCell>
                <mxCell id="124" value="" style="group" vertex="1" connectable="0" parent="1">
                    <mxGeometry x="720" y="241" width="198" height="94" as="geometry"/>
                </mxCell>
                <mxCell id="100" value="&lt;ul style=&quot;color: rgb(0 , 0 , 0) ; font-style: normal ; font-weight: 400 ; letter-spacing: normal ; text-align: left ; text-indent: 0px ; text-transform: none ; word-spacing: 0px ; font-family: &amp;#34;helvetica&amp;#34; ; font-size: 15px&quot;&gt;&lt;li style=&quot;padding: 3px 0px&quot;&gt;coinbase accounts balance&lt;/li&gt;&lt;/ul&gt;" style="text;whiteSpace=wrap;html=1;fontSize=21;fontFamily=Helvetica;fontColor=#000000;" vertex="1" parent="124">
                    <mxGeometry y="4" width="198" height="90" as="geometry"/>
                </mxCell>
                <mxCell id="101" value="" style="html=1;verticalLabelPosition=bottom;align=center;labelBackgroundColor=#ffffff;verticalAlign=top;strokeWidth=1;strokeColor=#FFFFFF;shadow=0;dashed=0;shape=mxgraph.ios7.icons.wallet;fontColor=#333333;fillColor=#000000;" vertex="1" parent="124">
                    <mxGeometry x="26" width="30" height="24" as="geometry"/>
                </mxCell>
            </root>
        </mxGraphModel>
    </diagram>
</mxfile>